<mxfile host="Electron" agent="Mozilla/5.0 (Windows NT 10.0; Win64; x64) AppleWebKit/537.36 (KHTML, like Gecko) draw.io/24.7.8 Chrome/128.0.6613.36 Electron/32.0.1 Safari/537.36" version="24.7.8">
  <diagram id="C5RBs43oDa-KdzZeNtuy" name="Page-1">
    <mxGraphModel dx="887" dy="472" grid="1" gridSize="10" guides="1" tooltips="1" connect="1" arrows="1" fold="1" page="1" pageScale="1" pageWidth="827" pageHeight="1169" math="0" shadow="0">
      <root>
        <mxCell id="WIyWlLk6GJQsqaUBKTNV-0" />
        <mxCell id="WIyWlLk6GJQsqaUBKTNV-1" parent="WIyWlLk6GJQsqaUBKTNV-0" />
        <mxCell id="r4OUJCUr4e9h1R2TkoGd-2" value="" style="edgeStyle=orthogonalEdgeStyle;rounded=0;orthogonalLoop=1;jettySize=auto;html=1;" parent="WIyWlLk6GJQsqaUBKTNV-1" source="r4OUJCUr4e9h1R2TkoGd-0" target="r4OUJCUr4e9h1R2TkoGd-1" edge="1">
          <mxGeometry relative="1" as="geometry" />
        </mxCell>
        <mxCell id="r4OUJCUr4e9h1R2TkoGd-0" value="Start" style="rounded=1;whiteSpace=wrap;html=1;arcSize=50;" parent="WIyWlLk6GJQsqaUBKTNV-1" vertex="1">
          <mxGeometry x="40" y="10" width="120" height="60" as="geometry" />
        </mxCell>
        <mxCell id="r4OUJCUr4e9h1R2TkoGd-4" style="edgeStyle=orthogonalEdgeStyle;rounded=0;orthogonalLoop=1;jettySize=auto;html=1;exitX=1;exitY=1;exitDx=0;exitDy=0;" parent="WIyWlLk6GJQsqaUBKTNV-1" source="r4OUJCUr4e9h1R2TkoGd-1" edge="1">
          <mxGeometry relative="1" as="geometry">
            <mxPoint x="180" y="161" as="targetPoint" />
          </mxGeometry>
        </mxCell>
        <mxCell id="r4OUJCUr4e9h1R2TkoGd-312" value="" style="edgeStyle=orthogonalEdgeStyle;rounded=0;orthogonalLoop=1;jettySize=auto;html=1;" parent="WIyWlLk6GJQsqaUBKTNV-1" source="r4OUJCUr4e9h1R2TkoGd-1" target="r4OUJCUr4e9h1R2TkoGd-310" edge="1">
          <mxGeometry relative="1" as="geometry" />
        </mxCell>
        <mxCell id="r4OUJCUr4e9h1R2TkoGd-1" value="Program&lt;div&gt;1. Login&lt;/div&gt;&lt;div&gt;2. Register&lt;/div&gt;&lt;div&gt;3. Logout&lt;/div&gt;" style="shape=parallelogram;perimeter=parallelogramPerimeter;whiteSpace=wrap;html=1;fixedSize=1;rounded=1;arcSize=0;" parent="WIyWlLk6GJQsqaUBKTNV-1" vertex="1">
          <mxGeometry x="40" y="110" width="120" height="60" as="geometry" />
        </mxCell>
        <mxCell id="r4OUJCUr4e9h1R2TkoGd-10" value="" style="edgeStyle=orthogonalEdgeStyle;rounded=0;orthogonalLoop=1;jettySize=auto;html=1;" parent="WIyWlLk6GJQsqaUBKTNV-1" source="r4OUJCUr4e9h1R2TkoGd-5" target="r4OUJCUr4e9h1R2TkoGd-9" edge="1">
          <mxGeometry relative="1" as="geometry" />
        </mxCell>
        <mxCell id="r4OUJCUr4e9h1R2TkoGd-33" value="" style="edgeStyle=orthogonalEdgeStyle;rounded=0;orthogonalLoop=1;jettySize=auto;html=1;" parent="WIyWlLk6GJQsqaUBKTNV-1" source="r4OUJCUr4e9h1R2TkoGd-5" target="r4OUJCUr4e9h1R2TkoGd-32" edge="1">
          <mxGeometry relative="1" as="geometry" />
        </mxCell>
        <mxCell id="r4OUJCUr4e9h1R2TkoGd-5" value="Pilih==1" style="rhombus;whiteSpace=wrap;html=1;rounded=1;arcSize=0;" parent="WIyWlLk6GJQsqaUBKTNV-1" vertex="1">
          <mxGeometry x="60" y="280" width="80" height="80" as="geometry" />
        </mxCell>
        <mxCell id="r4OUJCUr4e9h1R2TkoGd-12" value="" style="edgeStyle=orthogonalEdgeStyle;rounded=0;orthogonalLoop=1;jettySize=auto;html=1;" parent="WIyWlLk6GJQsqaUBKTNV-1" source="r4OUJCUr4e9h1R2TkoGd-9" target="r4OUJCUr4e9h1R2TkoGd-11" edge="1">
          <mxGeometry relative="1" as="geometry" />
        </mxCell>
        <mxCell id="r4OUJCUr4e9h1R2TkoGd-9" value="Masukkan&lt;div&gt;username dan&lt;/div&gt;&lt;div&gt;password&lt;/div&gt;" style="shape=parallelogram;perimeter=parallelogramPerimeter;whiteSpace=wrap;html=1;fixedSize=1;rounded=1;arcSize=0;" parent="WIyWlLk6GJQsqaUBKTNV-1" vertex="1">
          <mxGeometry x="40" y="450" width="120" height="60" as="geometry" />
        </mxCell>
        <mxCell id="r4OUJCUr4e9h1R2TkoGd-18" value="" style="edgeStyle=orthogonalEdgeStyle;rounded=0;orthogonalLoop=1;jettySize=auto;html=1;" parent="WIyWlLk6GJQsqaUBKTNV-1" source="r4OUJCUr4e9h1R2TkoGd-11" target="r4OUJCUr4e9h1R2TkoGd-17" edge="1">
          <mxGeometry relative="1" as="geometry" />
        </mxCell>
        <mxCell id="r4OUJCUr4e9h1R2TkoGd-75" value="" style="edgeStyle=orthogonalEdgeStyle;rounded=0;orthogonalLoop=1;jettySize=auto;html=1;" parent="WIyWlLk6GJQsqaUBKTNV-1" source="r4OUJCUr4e9h1R2TkoGd-11" target="r4OUJCUr4e9h1R2TkoGd-74" edge="1">
          <mxGeometry relative="1" as="geometry" />
        </mxCell>
        <mxCell id="r4OUJCUr4e9h1R2TkoGd-11" value="username&lt;div&gt;&amp;nbsp;dan pw&amp;nbsp;&lt;div&gt;== admin&lt;/div&gt;&lt;/div&gt;" style="rhombus;whiteSpace=wrap;html=1;rounded=1;arcSize=0;" parent="WIyWlLk6GJQsqaUBKTNV-1" vertex="1">
          <mxGeometry x="60" y="580" width="80" height="80" as="geometry" />
        </mxCell>
        <mxCell id="r4OUJCUr4e9h1R2TkoGd-20" value="" style="edgeStyle=orthogonalEdgeStyle;rounded=0;orthogonalLoop=1;jettySize=auto;html=1;" parent="WIyWlLk6GJQsqaUBKTNV-1" source="r4OUJCUr4e9h1R2TkoGd-17" target="r4OUJCUr4e9h1R2TkoGd-19" edge="1">
          <mxGeometry relative="1" as="geometry" />
        </mxCell>
        <mxCell id="r4OUJCUr4e9h1R2TkoGd-77" value="" style="edgeStyle=orthogonalEdgeStyle;rounded=0;orthogonalLoop=1;jettySize=auto;html=1;" parent="WIyWlLk6GJQsqaUBKTNV-1" source="r4OUJCUr4e9h1R2TkoGd-17" target="r4OUJCUr4e9h1R2TkoGd-76" edge="1">
          <mxGeometry relative="1" as="geometry" />
        </mxCell>
        <mxCell id="r4OUJCUr4e9h1R2TkoGd-17" value="username&lt;div&gt;&amp;nbsp;dan pw&amp;nbsp;&lt;div&gt;== user&lt;/div&gt;&lt;/div&gt;" style="rhombus;whiteSpace=wrap;html=1;rounded=1;arcSize=0;" parent="WIyWlLk6GJQsqaUBKTNV-1" vertex="1">
          <mxGeometry x="220" y="580" width="80" height="80" as="geometry" />
        </mxCell>
        <mxCell id="r4OUJCUr4e9h1R2TkoGd-72" style="edgeStyle=orthogonalEdgeStyle;rounded=0;orthogonalLoop=1;jettySize=auto;html=1;exitX=1;exitY=1;exitDx=0;exitDy=0;" parent="WIyWlLk6GJQsqaUBKTNV-1" source="r4OUJCUr4e9h1R2TkoGd-19" edge="1">
          <mxGeometry relative="1" as="geometry">
            <mxPoint x="500" y="641.4516129032257" as="targetPoint" />
          </mxGeometry>
        </mxCell>
        <mxCell id="gK6CPU68TXh7Awh2nHBY-0" style="edgeStyle=orthogonalEdgeStyle;rounded=0;orthogonalLoop=1;jettySize=auto;html=1;exitX=1;exitY=0.5;exitDx=0;exitDy=0;" parent="WIyWlLk6GJQsqaUBKTNV-1" source="r4OUJCUr4e9h1R2TkoGd-19" edge="1">
          <mxGeometry relative="1" as="geometry">
            <mxPoint x="970" y="620" as="targetPoint" />
          </mxGeometry>
        </mxCell>
        <mxCell id="r4OUJCUr4e9h1R2TkoGd-19" value="Login Gagal" style="shape=parallelogram;perimeter=parallelogramPerimeter;whiteSpace=wrap;html=1;fixedSize=1;rounded=1;arcSize=0;" parent="WIyWlLk6GJQsqaUBKTNV-1" vertex="1">
          <mxGeometry x="360" y="590" width="120" height="60" as="geometry" />
        </mxCell>
        <mxCell id="r4OUJCUr4e9h1R2TkoGd-23" style="edgeStyle=orthogonalEdgeStyle;rounded=0;orthogonalLoop=1;jettySize=auto;html=1;exitX=1;exitY=0.75;exitDx=0;exitDy=0;" parent="WIyWlLk6GJQsqaUBKTNV-1" edge="1">
          <mxGeometry relative="1" as="geometry">
            <mxPoint x="59.97000000000003" y="460.0038461538462" as="targetPoint" />
            <mxPoint x="25.970000000000027" y="460.85" as="sourcePoint" />
          </mxGeometry>
        </mxCell>
        <mxCell id="r4OUJCUr4e9h1R2TkoGd-292" style="edgeStyle=orthogonalEdgeStyle;rounded=0;orthogonalLoop=1;jettySize=auto;html=1;exitX=0.5;exitY=0;exitDx=0;exitDy=0;" parent="WIyWlLk6GJQsqaUBKTNV-1" source="r4OUJCUr4e9h1R2TkoGd-26" edge="1">
          <mxGeometry relative="1" as="geometry">
            <mxPoint x="970" y="550" as="targetPoint" />
            <Array as="points">
              <mxPoint x="579" y="550" />
            </Array>
          </mxGeometry>
        </mxCell>
        <mxCell id="r4OUJCUr4e9h1R2TkoGd-26" value="registrasi" style="shape=process;whiteSpace=wrap;html=1;backgroundOutline=1;rounded=1;arcSize=0;" parent="WIyWlLk6GJQsqaUBKTNV-1" vertex="1">
          <mxGeometry x="520" y="400" width="120" height="60" as="geometry" />
        </mxCell>
        <mxCell id="r4OUJCUr4e9h1R2TkoGd-30" value="" style="edgeStyle=orthogonalEdgeStyle;rounded=0;orthogonalLoop=1;jettySize=auto;html=1;" parent="WIyWlLk6GJQsqaUBKTNV-1" source="r4OUJCUr4e9h1R2TkoGd-28" target="r4OUJCUr4e9h1R2TkoGd-29" edge="1">
          <mxGeometry relative="1" as="geometry" />
        </mxCell>
        <mxCell id="r4OUJCUr4e9h1R2TkoGd-28" value="Registrasi" style="rounded=1;whiteSpace=wrap;html=1;arcSize=50;" parent="WIyWlLk6GJQsqaUBKTNV-1" vertex="1">
          <mxGeometry x="40" y="880" width="120" height="60" as="geometry" />
        </mxCell>
        <mxCell id="r4OUJCUr4e9h1R2TkoGd-55" value="" style="edgeStyle=orthogonalEdgeStyle;rounded=0;orthogonalLoop=1;jettySize=auto;html=1;" parent="WIyWlLk6GJQsqaUBKTNV-1" source="r4OUJCUr4e9h1R2TkoGd-29" target="r4OUJCUr4e9h1R2TkoGd-54" edge="1">
          <mxGeometry relative="1" as="geometry" />
        </mxCell>
        <mxCell id="r4OUJCUr4e9h1R2TkoGd-29" value="Masukkan&lt;div&gt;Username dan&amp;nbsp;&lt;/div&gt;&lt;div&gt;Password baru&lt;/div&gt;" style="shape=parallelogram;perimeter=parallelogramPerimeter;whiteSpace=wrap;html=1;fixedSize=1;rounded=1;arcSize=0;" parent="WIyWlLk6GJQsqaUBKTNV-1" vertex="1">
          <mxGeometry x="40" y="1020" width="120" height="60" as="geometry" />
        </mxCell>
        <mxCell id="r4OUJCUr4e9h1R2TkoGd-31" style="edgeStyle=orthogonalEdgeStyle;rounded=0;orthogonalLoop=1;jettySize=auto;html=1;exitX=1;exitY=0.75;exitDx=0;exitDy=0;" parent="WIyWlLk6GJQsqaUBKTNV-1" edge="1">
          <mxGeometry relative="1" as="geometry">
            <mxPoint x="59.880000000000024" y="1030.003846153846" as="targetPoint" />
            <mxPoint x="25.880000000000027" y="1030.85" as="sourcePoint" />
          </mxGeometry>
        </mxCell>
        <mxCell id="r4OUJCUr4e9h1R2TkoGd-34" value="" style="edgeStyle=orthogonalEdgeStyle;rounded=0;orthogonalLoop=1;jettySize=auto;html=1;" parent="WIyWlLk6GJQsqaUBKTNV-1" source="r4OUJCUr4e9h1R2TkoGd-32" target="r4OUJCUr4e9h1R2TkoGd-26" edge="1">
          <mxGeometry relative="1" as="geometry" />
        </mxCell>
        <mxCell id="r4OUJCUr4e9h1R2TkoGd-36" value="" style="edgeStyle=orthogonalEdgeStyle;rounded=0;orthogonalLoop=1;jettySize=auto;html=1;" parent="WIyWlLk6GJQsqaUBKTNV-1" source="r4OUJCUr4e9h1R2TkoGd-32" target="r4OUJCUr4e9h1R2TkoGd-35" edge="1">
          <mxGeometry relative="1" as="geometry" />
        </mxCell>
        <mxCell id="r4OUJCUr4e9h1R2TkoGd-32" value="pilih==2" style="rhombus;whiteSpace=wrap;html=1;rounded=1;arcSize=0;" parent="WIyWlLk6GJQsqaUBKTNV-1" vertex="1">
          <mxGeometry x="540" y="280" width="80" height="80" as="geometry" />
        </mxCell>
        <mxCell id="r4OUJCUr4e9h1R2TkoGd-38" value="" style="edgeStyle=orthogonalEdgeStyle;rounded=0;orthogonalLoop=1;jettySize=auto;html=1;" parent="WIyWlLk6GJQsqaUBKTNV-1" source="r4OUJCUr4e9h1R2TkoGd-35" target="r4OUJCUr4e9h1R2TkoGd-37" edge="1">
          <mxGeometry relative="1" as="geometry" />
        </mxCell>
        <mxCell id="r4OUJCUr4e9h1R2TkoGd-41" value="" style="edgeStyle=orthogonalEdgeStyle;rounded=0;orthogonalLoop=1;jettySize=auto;html=1;" parent="WIyWlLk6GJQsqaUBKTNV-1" source="r4OUJCUr4e9h1R2TkoGd-35" target="r4OUJCUr4e9h1R2TkoGd-40" edge="1">
          <mxGeometry relative="1" as="geometry" />
        </mxCell>
        <mxCell id="r4OUJCUr4e9h1R2TkoGd-35" value="pilih==3" style="rhombus;whiteSpace=wrap;html=1;rounded=1;arcSize=0;" parent="WIyWlLk6GJQsqaUBKTNV-1" vertex="1">
          <mxGeometry x="700" y="280" width="80" height="80" as="geometry" />
        </mxCell>
        <mxCell id="r4OUJCUr4e9h1R2TkoGd-37" value="END" style="rounded=1;whiteSpace=wrap;html=1;arcSize=50;" parent="WIyWlLk6GJQsqaUBKTNV-1" vertex="1">
          <mxGeometry x="680" y="400" width="120" height="60" as="geometry" />
        </mxCell>
        <mxCell id="r4OUJCUr4e9h1R2TkoGd-44" style="edgeStyle=orthogonalEdgeStyle;rounded=0;orthogonalLoop=1;jettySize=auto;html=1;exitX=1;exitY=0.5;exitDx=0;exitDy=0;entryX=1;entryY=0.5;entryDx=0;entryDy=0;" parent="WIyWlLk6GJQsqaUBKTNV-1" source="r4OUJCUr4e9h1R2TkoGd-40" target="r4OUJCUr4e9h1R2TkoGd-1" edge="1">
          <mxGeometry relative="1" as="geometry">
            <mxPoint x="720" y="170" as="targetPoint" />
            <Array as="points">
              <mxPoint x="970" y="320" />
              <mxPoint x="970" y="140" />
            </Array>
          </mxGeometry>
        </mxCell>
        <mxCell id="r4OUJCUr4e9h1R2TkoGd-73" style="edgeStyle=orthogonalEdgeStyle;rounded=0;orthogonalLoop=1;jettySize=auto;html=1;exitX=1;exitY=1;exitDx=0;exitDy=0;" parent="WIyWlLk6GJQsqaUBKTNV-1" source="r4OUJCUr4e9h1R2TkoGd-40" edge="1">
          <mxGeometry relative="1" as="geometry">
            <mxPoint x="930" y="341.4761904761905" as="targetPoint" />
          </mxGeometry>
        </mxCell>
        <mxCell id="r4OUJCUr4e9h1R2TkoGd-40" value="Pilihan tidak&lt;div&gt;tersedia&lt;/div&gt;" style="shape=parallelogram;perimeter=parallelogramPerimeter;whiteSpace=wrap;html=1;fixedSize=1;rounded=1;arcSize=0;" parent="WIyWlLk6GJQsqaUBKTNV-1" vertex="1">
          <mxGeometry x="800" y="290" width="120" height="60" as="geometry" />
        </mxCell>
        <mxCell id="r4OUJCUr4e9h1R2TkoGd-45" value="F" style="text;html=1;align=center;verticalAlign=middle;resizable=0;points=[];autosize=1;strokeColor=none;fillColor=none;" parent="WIyWlLk6GJQsqaUBKTNV-1" vertex="1">
          <mxGeometry x="775" y="288" width="30" height="30" as="geometry" />
        </mxCell>
        <mxCell id="r4OUJCUr4e9h1R2TkoGd-46" value="T" style="text;html=1;align=center;verticalAlign=middle;resizable=0;points=[];autosize=1;strokeColor=none;fillColor=none;" parent="WIyWlLk6GJQsqaUBKTNV-1" vertex="1">
          <mxGeometry x="715" y="348" width="30" height="30" as="geometry" />
        </mxCell>
        <mxCell id="r4OUJCUr4e9h1R2TkoGd-47" value="T" style="text;html=1;align=center;verticalAlign=middle;resizable=0;points=[];autosize=1;strokeColor=none;fillColor=none;" parent="WIyWlLk6GJQsqaUBKTNV-1" vertex="1">
          <mxGeometry x="550" y="348" width="30" height="30" as="geometry" />
        </mxCell>
        <mxCell id="r4OUJCUr4e9h1R2TkoGd-48" value="F" style="text;html=1;align=center;verticalAlign=middle;resizable=0;points=[];autosize=1;strokeColor=none;fillColor=none;" parent="WIyWlLk6GJQsqaUBKTNV-1" vertex="1">
          <mxGeometry x="615" y="288" width="30" height="30" as="geometry" />
        </mxCell>
        <mxCell id="r4OUJCUr4e9h1R2TkoGd-49" value="F" style="text;html=1;align=center;verticalAlign=middle;resizable=0;points=[];autosize=1;strokeColor=none;fillColor=none;" parent="WIyWlLk6GJQsqaUBKTNV-1" vertex="1">
          <mxGeometry x="125" y="288" width="30" height="30" as="geometry" />
        </mxCell>
        <mxCell id="r4OUJCUr4e9h1R2TkoGd-50" value="T" style="text;html=1;align=center;verticalAlign=middle;resizable=0;points=[];autosize=1;strokeColor=none;fillColor=none;" parent="WIyWlLk6GJQsqaUBKTNV-1" vertex="1">
          <mxGeometry x="75" y="348" width="30" height="30" as="geometry" />
        </mxCell>
        <mxCell id="r4OUJCUr4e9h1R2TkoGd-51" value="F" style="text;html=1;align=center;verticalAlign=middle;resizable=0;points=[];autosize=1;strokeColor=none;fillColor=none;" parent="WIyWlLk6GJQsqaUBKTNV-1" vertex="1">
          <mxGeometry x="295" y="598" width="30" height="30" as="geometry" />
        </mxCell>
        <mxCell id="r4OUJCUr4e9h1R2TkoGd-52" value="F" style="text;html=1;align=center;verticalAlign=middle;resizable=0;points=[];autosize=1;strokeColor=none;fillColor=none;" parent="WIyWlLk6GJQsqaUBKTNV-1" vertex="1">
          <mxGeometry x="135" y="588" width="30" height="30" as="geometry" />
        </mxCell>
        <mxCell id="r4OUJCUr4e9h1R2TkoGd-59" value="" style="edgeStyle=orthogonalEdgeStyle;rounded=0;orthogonalLoop=1;jettySize=auto;html=1;" parent="WIyWlLk6GJQsqaUBKTNV-1" source="r4OUJCUr4e9h1R2TkoGd-54" target="r4OUJCUr4e9h1R2TkoGd-58" edge="1">
          <mxGeometry relative="1" as="geometry" />
        </mxCell>
        <mxCell id="r4OUJCUr4e9h1R2TkoGd-62" value="" style="edgeStyle=orthogonalEdgeStyle;rounded=0;orthogonalLoop=1;jettySize=auto;html=1;" parent="WIyWlLk6GJQsqaUBKTNV-1" source="r4OUJCUr4e9h1R2TkoGd-54" target="r4OUJCUr4e9h1R2TkoGd-61" edge="1">
          <mxGeometry relative="1" as="geometry" />
        </mxCell>
        <mxCell id="r4OUJCUr4e9h1R2TkoGd-54" value="Username dan&amp;nbsp;&lt;div&gt;password&lt;/div&gt;&lt;div&gt;tidak kosong&lt;/div&gt;" style="rhombus;whiteSpace=wrap;html=1;rounded=1;arcSize=0;" parent="WIyWlLk6GJQsqaUBKTNV-1" vertex="1">
          <mxGeometry x="40" y="1130" width="120" height="120" as="geometry" />
        </mxCell>
        <mxCell id="r4OUJCUr4e9h1R2TkoGd-64" style="edgeStyle=orthogonalEdgeStyle;rounded=0;orthogonalLoop=1;jettySize=auto;html=1;exitX=1;exitY=1;exitDx=0;exitDy=0;" parent="WIyWlLk6GJQsqaUBKTNV-1" source="r4OUJCUr4e9h1R2TkoGd-58" edge="1">
          <mxGeometry relative="1" as="geometry">
            <mxPoint x="370" y="1211.666666666667" as="targetPoint" />
          </mxGeometry>
        </mxCell>
        <mxCell id="r4OUJCUr4e9h1R2TkoGd-67" style="edgeStyle=orthogonalEdgeStyle;rounded=0;orthogonalLoop=1;jettySize=auto;html=1;exitX=0.5;exitY=1;exitDx=0;exitDy=0;" parent="WIyWlLk6GJQsqaUBKTNV-1" source="r4OUJCUr4e9h1R2TkoGd-58" edge="1">
          <mxGeometry relative="1" as="geometry">
            <mxPoint x="100" y="1450" as="targetPoint" />
            <Array as="points">
              <mxPoint x="295" y="1450" />
              <mxPoint x="100" y="1450" />
            </Array>
          </mxGeometry>
        </mxCell>
        <mxCell id="r4OUJCUr4e9h1R2TkoGd-58" value="username dan pw&lt;div&gt;tidak boleh kosong&lt;/div&gt;" style="shape=parallelogram;perimeter=parallelogramPerimeter;whiteSpace=wrap;html=1;fixedSize=1;rounded=1;arcSize=0;" parent="WIyWlLk6GJQsqaUBKTNV-1" vertex="1">
          <mxGeometry x="235" y="1160" width="120" height="60" as="geometry" />
        </mxCell>
        <mxCell id="r4OUJCUr4e9h1R2TkoGd-60" value="T" style="text;html=1;align=center;verticalAlign=middle;resizable=0;points=[];autosize=1;strokeColor=none;fillColor=none;" parent="WIyWlLk6GJQsqaUBKTNV-1" vertex="1">
          <mxGeometry x="65" y="1238" width="30" height="30" as="geometry" />
        </mxCell>
        <mxCell id="r4OUJCUr4e9h1R2TkoGd-63" style="edgeStyle=orthogonalEdgeStyle;rounded=0;orthogonalLoop=1;jettySize=auto;html=1;exitX=1;exitY=1;exitDx=0;exitDy=0;" parent="WIyWlLk6GJQsqaUBKTNV-1" source="r4OUJCUr4e9h1R2TkoGd-61" edge="1">
          <mxGeometry relative="1" as="geometry">
            <mxPoint x="180" y="1326.666666666667" as="targetPoint" />
          </mxGeometry>
        </mxCell>
        <mxCell id="eH-7ti7Au0aiYVJ2lGVS-2" value="" style="edgeStyle=orthogonalEdgeStyle;rounded=0;orthogonalLoop=1;jettySize=auto;html=1;" edge="1" parent="WIyWlLk6GJQsqaUBKTNV-1" source="r4OUJCUr4e9h1R2TkoGd-61" target="eH-7ti7Au0aiYVJ2lGVS-1">
          <mxGeometry relative="1" as="geometry" />
        </mxCell>
        <mxCell id="r4OUJCUr4e9h1R2TkoGd-61" value="Registrasi Berhasil" style="shape=parallelogram;perimeter=parallelogramPerimeter;whiteSpace=wrap;html=1;fixedSize=1;rounded=1;arcSize=0;" parent="WIyWlLk6GJQsqaUBKTNV-1" vertex="1">
          <mxGeometry x="40" y="1275" width="120" height="60" as="geometry" />
        </mxCell>
        <mxCell id="r4OUJCUr4e9h1R2TkoGd-65" value="End" style="rounded=1;whiteSpace=wrap;html=1;arcSize=50;" parent="WIyWlLk6GJQsqaUBKTNV-1" vertex="1">
          <mxGeometry x="40" y="1490" width="120" height="60" as="geometry" />
        </mxCell>
        <mxCell id="r4OUJCUr4e9h1R2TkoGd-302" style="edgeStyle=orthogonalEdgeStyle;rounded=0;orthogonalLoop=1;jettySize=auto;html=1;exitX=0.5;exitY=1;exitDx=0;exitDy=0;" parent="WIyWlLk6GJQsqaUBKTNV-1" source="r4OUJCUr4e9h1R2TkoGd-74" edge="1">
          <mxGeometry relative="1" as="geometry">
            <mxPoint x="260" y="790" as="targetPoint" />
            <Array as="points">
              <mxPoint x="100" y="790" />
            </Array>
          </mxGeometry>
        </mxCell>
        <mxCell id="r4OUJCUr4e9h1R2TkoGd-74" value="Menu Admin" style="shape=process;whiteSpace=wrap;html=1;backgroundOutline=1;rounded=1;arcSize=0;" parent="WIyWlLk6GJQsqaUBKTNV-1" vertex="1">
          <mxGeometry x="40" y="710" width="120" height="60" as="geometry" />
        </mxCell>
        <mxCell id="r4OUJCUr4e9h1R2TkoGd-297" style="edgeStyle=orthogonalEdgeStyle;rounded=0;orthogonalLoop=1;jettySize=auto;html=1;exitX=0.5;exitY=1;exitDx=0;exitDy=0;" parent="WIyWlLk6GJQsqaUBKTNV-1" source="r4OUJCUr4e9h1R2TkoGd-76" edge="1">
          <mxGeometry relative="1" as="geometry">
            <mxPoint x="970" y="320" as="targetPoint" />
          </mxGeometry>
        </mxCell>
        <mxCell id="r4OUJCUr4e9h1R2TkoGd-76" value="Menu User" style="shape=process;whiteSpace=wrap;html=1;backgroundOutline=1;rounded=1;arcSize=0;" parent="WIyWlLk6GJQsqaUBKTNV-1" vertex="1">
          <mxGeometry x="200" y="710" width="120" height="60" as="geometry" />
        </mxCell>
        <mxCell id="r4OUJCUr4e9h1R2TkoGd-81" value="" style="edgeStyle=orthogonalEdgeStyle;rounded=0;orthogonalLoop=1;jettySize=auto;html=1;" parent="WIyWlLk6GJQsqaUBKTNV-1" source="r4OUJCUr4e9h1R2TkoGd-79" target="r4OUJCUr4e9h1R2TkoGd-80" edge="1">
          <mxGeometry relative="1" as="geometry" />
        </mxCell>
        <mxCell id="r4OUJCUr4e9h1R2TkoGd-79" value="Menu User" style="rounded=1;whiteSpace=wrap;html=1;arcSize=50;" parent="WIyWlLk6GJQsqaUBKTNV-1" vertex="1">
          <mxGeometry x="1128" y="10" width="120" height="60" as="geometry" />
        </mxCell>
        <mxCell id="r4OUJCUr4e9h1R2TkoGd-104" style="edgeStyle=orthogonalEdgeStyle;rounded=0;orthogonalLoop=1;jettySize=auto;html=1;exitX=1;exitY=1;exitDx=0;exitDy=0;" parent="WIyWlLk6GJQsqaUBKTNV-1" source="r4OUJCUr4e9h1R2TkoGd-80" edge="1">
          <mxGeometry relative="1" as="geometry">
            <mxPoint x="1278" y="201.92307692307668" as="targetPoint" />
          </mxGeometry>
        </mxCell>
        <mxCell id="r4OUJCUr4e9h1R2TkoGd-376" value="" style="edgeStyle=orthogonalEdgeStyle;rounded=0;orthogonalLoop=1;jettySize=auto;html=1;" parent="WIyWlLk6GJQsqaUBKTNV-1" source="r4OUJCUr4e9h1R2TkoGd-80" target="r4OUJCUr4e9h1R2TkoGd-375" edge="1">
          <mxGeometry relative="1" as="geometry" />
        </mxCell>
        <mxCell id="r4OUJCUr4e9h1R2TkoGd-80" value="program&lt;div&gt;1. Read&lt;/div&gt;&lt;div&gt;2. Tambah&lt;/div&gt;&lt;div&gt;3. Exit&lt;/div&gt;" style="shape=parallelogram;perimeter=parallelogramPerimeter;whiteSpace=wrap;html=1;fixedSize=1;rounded=1;arcSize=0;" parent="WIyWlLk6GJQsqaUBKTNV-1" vertex="1">
          <mxGeometry x="1128" y="150" width="120" height="60" as="geometry" />
        </mxCell>
        <mxCell id="r4OUJCUr4e9h1R2TkoGd-84" value="&lt;div&gt;&lt;br&gt;&lt;/div&gt;if len (data)&lt;div&gt;== 0&lt;/div&gt;" style="rhombus;whiteSpace=wrap;html=1;" parent="WIyWlLk6GJQsqaUBKTNV-1" vertex="1">
          <mxGeometry x="545" y="980" width="80" height="80" as="geometry" />
        </mxCell>
        <mxCell id="r4OUJCUr4e9h1R2TkoGd-99" style="edgeStyle=orthogonalEdgeStyle;rounded=0;orthogonalLoop=1;jettySize=auto;html=1;exitX=0.5;exitY=1;exitDx=0;exitDy=0;entryX=0.5;entryY=0;entryDx=0;entryDy=0;" parent="WIyWlLk6GJQsqaUBKTNV-1" source="r4OUJCUr4e9h1R2TkoGd-85" target="r4OUJCUr4e9h1R2TkoGd-95" edge="1">
          <mxGeometry relative="1" as="geometry">
            <mxPoint x="584" y="1210" as="targetPoint" />
          </mxGeometry>
        </mxCell>
        <mxCell id="r4OUJCUr4e9h1R2TkoGd-372" style="edgeStyle=orthogonalEdgeStyle;rounded=0;orthogonalLoop=1;jettySize=auto;html=1;exitX=1;exitY=1;exitDx=0;exitDy=0;" parent="WIyWlLk6GJQsqaUBKTNV-1" source="r4OUJCUr4e9h1R2TkoGd-85" edge="1">
          <mxGeometry relative="1" as="geometry">
            <mxPoint x="560" y="1121" as="targetPoint" />
          </mxGeometry>
        </mxCell>
        <mxCell id="r4OUJCUr4e9h1R2TkoGd-85" value="Belum ada data" style="shape=parallelogram;perimeter=parallelogramPerimeter;whiteSpace=wrap;html=1;fixedSize=1;" parent="WIyWlLk6GJQsqaUBKTNV-1" vertex="1">
          <mxGeometry x="430" y="1070" width="120" height="60" as="geometry" />
        </mxCell>
        <mxCell id="r4OUJCUr4e9h1R2TkoGd-86" style="edgeStyle=orthogonalEdgeStyle;rounded=0;orthogonalLoop=1;jettySize=auto;html=1;entryX=0.583;entryY=0;entryDx=0;entryDy=0;entryPerimeter=0;" parent="WIyWlLk6GJQsqaUBKTNV-1" source="r4OUJCUr4e9h1R2TkoGd-84" target="r4OUJCUr4e9h1R2TkoGd-85" edge="1">
          <mxGeometry relative="1" as="geometry">
            <Array as="points">
              <mxPoint x="500" y="1020" />
            </Array>
          </mxGeometry>
        </mxCell>
        <mxCell id="r4OUJCUr4e9h1R2TkoGd-100" style="edgeStyle=orthogonalEdgeStyle;rounded=0;orthogonalLoop=1;jettySize=auto;html=1;exitX=0.5;exitY=1;exitDx=0;exitDy=0;entryX=0.5;entryY=0;entryDx=0;entryDy=0;" parent="WIyWlLk6GJQsqaUBKTNV-1" source="r4OUJCUr4e9h1R2TkoGd-87" target="r4OUJCUr4e9h1R2TkoGd-95" edge="1">
          <mxGeometry relative="1" as="geometry">
            <mxPoint x="584" y="1210" as="targetPoint" />
          </mxGeometry>
        </mxCell>
        <mxCell id="r4OUJCUr4e9h1R2TkoGd-373" style="edgeStyle=orthogonalEdgeStyle;rounded=0;orthogonalLoop=1;jettySize=auto;html=1;exitX=1;exitY=1;exitDx=0;exitDy=0;" parent="WIyWlLk6GJQsqaUBKTNV-1" source="r4OUJCUr4e9h1R2TkoGd-87" edge="1">
          <mxGeometry relative="1" as="geometry">
            <mxPoint x="750" y="1121" as="targetPoint" />
          </mxGeometry>
        </mxCell>
        <mxCell id="r4OUJCUr4e9h1R2TkoGd-87" value="Print data&amp;nbsp;" style="shape=parallelogram;perimeter=parallelogramPerimeter;whiteSpace=wrap;html=1;fixedSize=1;" parent="WIyWlLk6GJQsqaUBKTNV-1" vertex="1">
          <mxGeometry x="620" y="1070" width="120" height="60" as="geometry" />
        </mxCell>
        <mxCell id="r4OUJCUr4e9h1R2TkoGd-88" style="edgeStyle=orthogonalEdgeStyle;rounded=0;orthogonalLoop=1;jettySize=auto;html=1;entryX=0.583;entryY=0;entryDx=0;entryDy=0;entryPerimeter=0;" parent="WIyWlLk6GJQsqaUBKTNV-1" source="r4OUJCUr4e9h1R2TkoGd-84" target="r4OUJCUr4e9h1R2TkoGd-87" edge="1">
          <mxGeometry relative="1" as="geometry">
            <Array as="points">
              <mxPoint x="690" y="1020" />
            </Array>
          </mxGeometry>
        </mxCell>
        <mxCell id="r4OUJCUr4e9h1R2TkoGd-94" value="" style="edgeStyle=orthogonalEdgeStyle;rounded=0;orthogonalLoop=1;jettySize=auto;html=1;" parent="WIyWlLk6GJQsqaUBKTNV-1" source="r4OUJCUr4e9h1R2TkoGd-93" target="r4OUJCUr4e9h1R2TkoGd-84" edge="1">
          <mxGeometry relative="1" as="geometry" />
        </mxCell>
        <mxCell id="r4OUJCUr4e9h1R2TkoGd-93" value="Read Data" style="rounded=1;whiteSpace=wrap;html=1;arcSize=50;" parent="WIyWlLk6GJQsqaUBKTNV-1" vertex="1">
          <mxGeometry x="525" y="880" width="120" height="60" as="geometry" />
        </mxCell>
        <mxCell id="r4OUJCUr4e9h1R2TkoGd-95" value="End" style="rounded=1;whiteSpace=wrap;html=1;arcSize=50;" parent="WIyWlLk6GJQsqaUBKTNV-1" vertex="1">
          <mxGeometry x="525" y="1260" width="120" height="60" as="geometry" />
        </mxCell>
        <mxCell id="r4OUJCUr4e9h1R2TkoGd-101" value="T" style="text;html=1;align=center;verticalAlign=middle;resizable=0;points=[];autosize=1;strokeColor=none;fillColor=none;" parent="WIyWlLk6GJQsqaUBKTNV-1" vertex="1">
          <mxGeometry x="519" y="988" width="30" height="30" as="geometry" />
        </mxCell>
        <mxCell id="r4OUJCUr4e9h1R2TkoGd-102" value="F" style="text;html=1;align=center;verticalAlign=middle;resizable=0;points=[];autosize=1;strokeColor=none;fillColor=none;" parent="WIyWlLk6GJQsqaUBKTNV-1" vertex="1">
          <mxGeometry x="619" y="988" width="30" height="30" as="geometry" />
        </mxCell>
        <mxCell id="r4OUJCUr4e9h1R2TkoGd-103" value="F" style="text;html=1;align=center;verticalAlign=middle;resizable=0;points=[];autosize=1;strokeColor=none;fillColor=none;" parent="WIyWlLk6GJQsqaUBKTNV-1" vertex="1">
          <mxGeometry x="145" y="1158" width="30" height="30" as="geometry" />
        </mxCell>
        <mxCell id="r4OUJCUr4e9h1R2TkoGd-112" value="" style="edgeStyle=orthogonalEdgeStyle;rounded=0;orthogonalLoop=1;jettySize=auto;html=1;" parent="WIyWlLk6GJQsqaUBKTNV-1" source="r4OUJCUr4e9h1R2TkoGd-105" target="r4OUJCUr4e9h1R2TkoGd-111" edge="1">
          <mxGeometry relative="1" as="geometry" />
        </mxCell>
        <mxCell id="r4OUJCUr4e9h1R2TkoGd-114" value="" style="edgeStyle=orthogonalEdgeStyle;rounded=0;orthogonalLoop=1;jettySize=auto;html=1;" parent="WIyWlLk6GJQsqaUBKTNV-1" source="r4OUJCUr4e9h1R2TkoGd-105" target="r4OUJCUr4e9h1R2TkoGd-113" edge="1">
          <mxGeometry relative="1" as="geometry" />
        </mxCell>
        <mxCell id="r4OUJCUr4e9h1R2TkoGd-105" value="Pilih ==1" style="rhombus;whiteSpace=wrap;html=1;rounded=1;arcSize=0;" parent="WIyWlLk6GJQsqaUBKTNV-1" vertex="1">
          <mxGeometry x="1149" y="318" width="80" height="80" as="geometry" />
        </mxCell>
        <mxCell id="r4OUJCUr4e9h1R2TkoGd-381" style="edgeStyle=orthogonalEdgeStyle;rounded=0;orthogonalLoop=1;jettySize=auto;html=1;exitX=0.5;exitY=1;exitDx=0;exitDy=0;" parent="WIyWlLk6GJQsqaUBKTNV-1" source="r4OUJCUr4e9h1R2TkoGd-111" edge="1">
          <mxGeometry relative="1" as="geometry">
            <mxPoint x="1350" y="570" as="targetPoint" />
            <Array as="points">
              <mxPoint x="1189" y="570" />
            </Array>
          </mxGeometry>
        </mxCell>
        <mxCell id="r4OUJCUr4e9h1R2TkoGd-111" value="Read data" style="shape=process;whiteSpace=wrap;html=1;backgroundOutline=1;rounded=1;arcSize=0;" parent="WIyWlLk6GJQsqaUBKTNV-1" vertex="1">
          <mxGeometry x="1129" y="488" width="120" height="60" as="geometry" />
        </mxCell>
        <mxCell id="r4OUJCUr4e9h1R2TkoGd-118" value="" style="edgeStyle=orthogonalEdgeStyle;rounded=0;orthogonalLoop=1;jettySize=auto;html=1;" parent="WIyWlLk6GJQsqaUBKTNV-1" source="r4OUJCUr4e9h1R2TkoGd-113" target="r4OUJCUr4e9h1R2TkoGd-117" edge="1">
          <mxGeometry relative="1" as="geometry" />
        </mxCell>
        <mxCell id="r4OUJCUr4e9h1R2TkoGd-189" value="" style="edgeStyle=orthogonalEdgeStyle;rounded=0;orthogonalLoop=1;jettySize=auto;html=1;" parent="WIyWlLk6GJQsqaUBKTNV-1" source="r4OUJCUr4e9h1R2TkoGd-113" target="r4OUJCUr4e9h1R2TkoGd-188" edge="1">
          <mxGeometry relative="1" as="geometry" />
        </mxCell>
        <mxCell id="r4OUJCUr4e9h1R2TkoGd-113" value="Pilih==2" style="rhombus;whiteSpace=wrap;html=1;rounded=1;arcSize=0;" parent="WIyWlLk6GJQsqaUBKTNV-1" vertex="1">
          <mxGeometry x="1309" y="318" width="80" height="80" as="geometry" />
        </mxCell>
        <mxCell id="r4OUJCUr4e9h1R2TkoGd-115" value="T" style="text;html=1;align=center;verticalAlign=middle;resizable=0;points=[];autosize=1;strokeColor=none;fillColor=none;" parent="WIyWlLk6GJQsqaUBKTNV-1" vertex="1">
          <mxGeometry x="1164" y="386" width="30" height="30" as="geometry" />
        </mxCell>
        <mxCell id="r4OUJCUr4e9h1R2TkoGd-116" value="F" style="text;html=1;align=center;verticalAlign=middle;resizable=0;points=[];autosize=1;strokeColor=none;fillColor=none;" parent="WIyWlLk6GJQsqaUBKTNV-1" vertex="1">
          <mxGeometry x="1224" y="326" width="30" height="30" as="geometry" />
        </mxCell>
        <mxCell id="r4OUJCUr4e9h1R2TkoGd-380" style="edgeStyle=orthogonalEdgeStyle;rounded=0;orthogonalLoop=1;jettySize=auto;html=1;exitX=0.5;exitY=1;exitDx=0;exitDy=0;" parent="WIyWlLk6GJQsqaUBKTNV-1" source="r4OUJCUr4e9h1R2TkoGd-117" edge="1">
          <mxGeometry relative="1" as="geometry">
            <mxPoint x="1760" y="360" as="targetPoint" />
            <Array as="points">
              <mxPoint x="1349" y="570" />
              <mxPoint x="1760" y="570" />
              <mxPoint x="1760" y="390" />
            </Array>
          </mxGeometry>
        </mxCell>
        <mxCell id="r4OUJCUr4e9h1R2TkoGd-117" value="Tambah Data" style="shape=process;whiteSpace=wrap;html=1;backgroundOutline=1;rounded=1;arcSize=0;" parent="WIyWlLk6GJQsqaUBKTNV-1" vertex="1">
          <mxGeometry x="1289" y="488" width="120" height="60" as="geometry" />
        </mxCell>
        <mxCell id="r4OUJCUr4e9h1R2TkoGd-121" value="" style="edgeStyle=orthogonalEdgeStyle;rounded=0;orthogonalLoop=1;jettySize=auto;html=1;" parent="WIyWlLk6GJQsqaUBKTNV-1" source="r4OUJCUr4e9h1R2TkoGd-123" target="r4OUJCUr4e9h1R2TkoGd-125" edge="1">
          <mxGeometry relative="1" as="geometry" />
        </mxCell>
        <mxCell id="r4OUJCUr4e9h1R2TkoGd-122" style="edgeStyle=orthogonalEdgeStyle;rounded=0;orthogonalLoop=1;jettySize=auto;html=1;" parent="WIyWlLk6GJQsqaUBKTNV-1" edge="1">
          <mxGeometry relative="1" as="geometry">
            <mxPoint x="853" y="982" as="targetPoint" />
            <mxPoint x="809" y="982" as="sourcePoint" />
          </mxGeometry>
        </mxCell>
        <mxCell id="r4OUJCUr4e9h1R2TkoGd-123" value="Masukkan Nama" style="shape=parallelogram;perimeter=parallelogramPerimeter;whiteSpace=wrap;html=1;fixedSize=1;" parent="WIyWlLk6GJQsqaUBKTNV-1" vertex="1">
          <mxGeometry x="837" y="970" width="120" height="60" as="geometry" />
        </mxCell>
        <mxCell id="r4OUJCUr4e9h1R2TkoGd-124" value="" style="edgeStyle=orthogonalEdgeStyle;rounded=0;orthogonalLoop=1;jettySize=auto;html=1;" parent="WIyWlLk6GJQsqaUBKTNV-1" source="r4OUJCUr4e9h1R2TkoGd-125" target="r4OUJCUr4e9h1R2TkoGd-127" edge="1">
          <mxGeometry relative="1" as="geometry" />
        </mxCell>
        <mxCell id="r4OUJCUr4e9h1R2TkoGd-125" value="&amp;nbsp; &amp;nbsp;Masukkan Nomor&lt;div&gt;Kontak&lt;/div&gt;" style="shape=parallelogram;perimeter=parallelogramPerimeter;whiteSpace=wrap;html=1;fixedSize=1;" parent="WIyWlLk6GJQsqaUBKTNV-1" vertex="1">
          <mxGeometry x="837" y="1060" width="120" height="60" as="geometry" />
        </mxCell>
        <mxCell id="r4OUJCUr4e9h1R2TkoGd-126" value="" style="edgeStyle=orthogonalEdgeStyle;rounded=0;orthogonalLoop=1;jettySize=auto;html=1;" parent="WIyWlLk6GJQsqaUBKTNV-1" source="r4OUJCUr4e9h1R2TkoGd-127" target="r4OUJCUr4e9h1R2TkoGd-129" edge="1">
          <mxGeometry relative="1" as="geometry" />
        </mxCell>
        <mxCell id="r4OUJCUr4e9h1R2TkoGd-127" value="Masukkan jenis&lt;div&gt;kendaraan&amp;nbsp;&lt;/div&gt;" style="shape=parallelogram;perimeter=parallelogramPerimeter;whiteSpace=wrap;html=1;fixedSize=1;" parent="WIyWlLk6GJQsqaUBKTNV-1" vertex="1">
          <mxGeometry x="837" y="1150" width="120" height="60" as="geometry" />
        </mxCell>
        <mxCell id="r4OUJCUr4e9h1R2TkoGd-128" value="" style="edgeStyle=orthogonalEdgeStyle;rounded=0;orthogonalLoop=1;jettySize=auto;html=1;" parent="WIyWlLk6GJQsqaUBKTNV-1" source="r4OUJCUr4e9h1R2TkoGd-129" target="r4OUJCUr4e9h1R2TkoGd-131" edge="1">
          <mxGeometry relative="1" as="geometry" />
        </mxCell>
        <mxCell id="r4OUJCUr4e9h1R2TkoGd-129" value="&amp;nbsp; &amp;nbsp;Masukkan merek&lt;div&gt;kendaraan&lt;/div&gt;" style="shape=parallelogram;perimeter=parallelogramPerimeter;whiteSpace=wrap;html=1;fixedSize=1;" parent="WIyWlLk6GJQsqaUBKTNV-1" vertex="1">
          <mxGeometry x="837" y="1240" width="120" height="60" as="geometry" />
        </mxCell>
        <mxCell id="r4OUJCUr4e9h1R2TkoGd-130" value="" style="edgeStyle=orthogonalEdgeStyle;rounded=0;orthogonalLoop=1;jettySize=auto;html=1;" parent="WIyWlLk6GJQsqaUBKTNV-1" source="r4OUJCUr4e9h1R2TkoGd-131" target="r4OUJCUr4e9h1R2TkoGd-133" edge="1">
          <mxGeometry relative="1" as="geometry" />
        </mxCell>
        <mxCell id="r4OUJCUr4e9h1R2TkoGd-131" value="Masukkan warna&lt;div&gt;kendaraan&lt;/div&gt;" style="shape=parallelogram;perimeter=parallelogramPerimeter;whiteSpace=wrap;html=1;fixedSize=1;" parent="WIyWlLk6GJQsqaUBKTNV-1" vertex="1">
          <mxGeometry x="837" y="1335" width="120" height="60" as="geometry" />
        </mxCell>
        <mxCell id="r4OUJCUr4e9h1R2TkoGd-132" style="edgeStyle=orthogonalEdgeStyle;rounded=0;orthogonalLoop=1;jettySize=auto;html=1;entryX=0.5;entryY=0;entryDx=0;entryDy=0;" parent="WIyWlLk6GJQsqaUBKTNV-1" source="r4OUJCUr4e9h1R2TkoGd-133" target="r4OUJCUr4e9h1R2TkoGd-144" edge="1">
          <mxGeometry relative="1" as="geometry" />
        </mxCell>
        <mxCell id="r4OUJCUr4e9h1R2TkoGd-133" value="&amp;nbsp; &amp;nbsp;Masukkan durasi&lt;div&gt;waktu&lt;/div&gt;&lt;div&gt;penyimpanan&lt;/div&gt;" style="shape=parallelogram;perimeter=parallelogramPerimeter;whiteSpace=wrap;html=1;fixedSize=1;" parent="WIyWlLk6GJQsqaUBKTNV-1" vertex="1">
          <mxGeometry x="837" y="1430" width="120" height="60" as="geometry" />
        </mxCell>
        <mxCell id="r4OUJCUr4e9h1R2TkoGd-134" value="" style="edgeStyle=orthogonalEdgeStyle;rounded=0;orthogonalLoop=1;jettySize=auto;html=1;" parent="WIyWlLk6GJQsqaUBKTNV-1" source="r4OUJCUr4e9h1R2TkoGd-135" target="r4OUJCUr4e9h1R2TkoGd-136" edge="1">
          <mxGeometry relative="1" as="geometry" />
        </mxCell>
        <mxCell id="r4OUJCUr4e9h1R2TkoGd-135" value="Menyimpan data ke&lt;div&gt;Csv&lt;/div&gt;" style="whiteSpace=wrap;html=1;" parent="WIyWlLk6GJQsqaUBKTNV-1" vertex="1">
          <mxGeometry x="837" y="1612" width="120" height="60" as="geometry" />
        </mxCell>
        <mxCell id="r4OUJCUr4e9h1R2TkoGd-150" value="" style="edgeStyle=orthogonalEdgeStyle;rounded=0;orthogonalLoop=1;jettySize=auto;html=1;" parent="WIyWlLk6GJQsqaUBKTNV-1" source="r4OUJCUr4e9h1R2TkoGd-136" target="r4OUJCUr4e9h1R2TkoGd-149" edge="1">
          <mxGeometry relative="1" as="geometry" />
        </mxCell>
        <mxCell id="r4OUJCUr4e9h1R2TkoGd-136" value="Data berhasil di&lt;div&gt;buat dan disimpan&lt;/div&gt;" style="shape=parallelogram;perimeter=parallelogramPerimeter;whiteSpace=wrap;html=1;fixedSize=1;" parent="WIyWlLk6GJQsqaUBKTNV-1" vertex="1">
          <mxGeometry x="829" y="1712" width="136" height="60" as="geometry" />
        </mxCell>
        <mxCell id="r4OUJCUr4e9h1R2TkoGd-137" style="edgeStyle=orthogonalEdgeStyle;rounded=0;orthogonalLoop=1;jettySize=auto;html=1;" parent="WIyWlLk6GJQsqaUBKTNV-1" edge="1">
          <mxGeometry relative="1" as="geometry">
            <mxPoint x="853" y="1069" as="targetPoint" />
            <mxPoint x="809" y="1069" as="sourcePoint" />
          </mxGeometry>
        </mxCell>
        <mxCell id="r4OUJCUr4e9h1R2TkoGd-138" style="edgeStyle=orthogonalEdgeStyle;rounded=0;orthogonalLoop=1;jettySize=auto;html=1;" parent="WIyWlLk6GJQsqaUBKTNV-1" edge="1">
          <mxGeometry relative="1" as="geometry">
            <mxPoint x="853" y="1161" as="targetPoint" />
            <mxPoint x="809" y="1161" as="sourcePoint" />
          </mxGeometry>
        </mxCell>
        <mxCell id="r4OUJCUr4e9h1R2TkoGd-139" style="edgeStyle=orthogonalEdgeStyle;rounded=0;orthogonalLoop=1;jettySize=auto;html=1;" parent="WIyWlLk6GJQsqaUBKTNV-1" edge="1">
          <mxGeometry relative="1" as="geometry">
            <mxPoint x="853" y="1251" as="targetPoint" />
            <mxPoint x="809" y="1251" as="sourcePoint" />
          </mxGeometry>
        </mxCell>
        <mxCell id="r4OUJCUr4e9h1R2TkoGd-140" style="edgeStyle=orthogonalEdgeStyle;rounded=0;orthogonalLoop=1;jettySize=auto;html=1;" parent="WIyWlLk6GJQsqaUBKTNV-1" edge="1">
          <mxGeometry relative="1" as="geometry">
            <mxPoint x="853" y="1345" as="targetPoint" />
            <mxPoint x="809" y="1345" as="sourcePoint" />
          </mxGeometry>
        </mxCell>
        <mxCell id="r4OUJCUr4e9h1R2TkoGd-141" style="edgeStyle=orthogonalEdgeStyle;rounded=0;orthogonalLoop=1;jettySize=auto;html=1;" parent="WIyWlLk6GJQsqaUBKTNV-1" edge="1">
          <mxGeometry relative="1" as="geometry">
            <mxPoint x="853" y="1440" as="targetPoint" />
            <mxPoint x="809" y="1440" as="sourcePoint" />
          </mxGeometry>
        </mxCell>
        <mxCell id="r4OUJCUr4e9h1R2TkoGd-142" style="edgeStyle=orthogonalEdgeStyle;rounded=0;orthogonalLoop=1;jettySize=auto;html=1;" parent="WIyWlLk6GJQsqaUBKTNV-1" edge="1">
          <mxGeometry relative="1" as="geometry">
            <mxPoint x="992" y="1761" as="targetPoint" />
            <mxPoint x="948" y="1761" as="sourcePoint" />
          </mxGeometry>
        </mxCell>
        <mxCell id="r4OUJCUr4e9h1R2TkoGd-143" style="edgeStyle=orthogonalEdgeStyle;rounded=0;orthogonalLoop=1;jettySize=auto;html=1;entryX=0.5;entryY=0;entryDx=0;entryDy=0;" parent="WIyWlLk6GJQsqaUBKTNV-1" source="r4OUJCUr4e9h1R2TkoGd-144" target="r4OUJCUr4e9h1R2TkoGd-135" edge="1">
          <mxGeometry relative="1" as="geometry" />
        </mxCell>
        <mxCell id="r4OUJCUr4e9h1R2TkoGd-144" value="Masukkan jenis&lt;div&gt;Pembayaran&lt;/div&gt;" style="shape=parallelogram;perimeter=parallelogramPerimeter;whiteSpace=wrap;html=1;fixedSize=1;" parent="WIyWlLk6GJQsqaUBKTNV-1" vertex="1">
          <mxGeometry x="837" y="1520" width="120" height="60" as="geometry" />
        </mxCell>
        <mxCell id="r4OUJCUr4e9h1R2TkoGd-145" style="edgeStyle=orthogonalEdgeStyle;rounded=0;orthogonalLoop=1;jettySize=auto;html=1;" parent="WIyWlLk6GJQsqaUBKTNV-1" edge="1">
          <mxGeometry relative="1" as="geometry">
            <mxPoint x="853" y="1530" as="targetPoint" />
            <mxPoint x="809" y="1530" as="sourcePoint" />
          </mxGeometry>
        </mxCell>
        <mxCell id="r4OUJCUr4e9h1R2TkoGd-149" value="End" style="rounded=1;whiteSpace=wrap;html=1;arcSize=50;" parent="WIyWlLk6GJQsqaUBKTNV-1" vertex="1">
          <mxGeometry x="837" y="1810" width="120" height="60" as="geometry" />
        </mxCell>
        <mxCell id="r4OUJCUr4e9h1R2TkoGd-152" value="" style="edgeStyle=orthogonalEdgeStyle;rounded=0;orthogonalLoop=1;jettySize=auto;html=1;" parent="WIyWlLk6GJQsqaUBKTNV-1" source="r4OUJCUr4e9h1R2TkoGd-151" target="r4OUJCUr4e9h1R2TkoGd-123" edge="1">
          <mxGeometry relative="1" as="geometry" />
        </mxCell>
        <mxCell id="r4OUJCUr4e9h1R2TkoGd-151" value="Tambah Data" style="rounded=1;whiteSpace=wrap;html=1;arcSize=50;" parent="WIyWlLk6GJQsqaUBKTNV-1" vertex="1">
          <mxGeometry x="837" y="880" width="120" height="60" as="geometry" />
        </mxCell>
        <mxCell id="r4OUJCUr4e9h1R2TkoGd-155" value="" style="edgeStyle=orthogonalEdgeStyle;rounded=0;orthogonalLoop=1;jettySize=auto;html=1;" parent="WIyWlLk6GJQsqaUBKTNV-1" source="r4OUJCUr4e9h1R2TkoGd-157" target="r4OUJCUr4e9h1R2TkoGd-159" edge="1">
          <mxGeometry relative="1" as="geometry" />
        </mxCell>
        <mxCell id="r4OUJCUr4e9h1R2TkoGd-156" style="edgeStyle=orthogonalEdgeStyle;rounded=0;orthogonalLoop=1;jettySize=auto;html=1;" parent="WIyWlLk6GJQsqaUBKTNV-1" edge="1">
          <mxGeometry relative="1" as="geometry">
            <mxPoint x="1083" y="1070" as="targetPoint" />
            <mxPoint x="1039" y="1070" as="sourcePoint" />
          </mxGeometry>
        </mxCell>
        <mxCell id="r4OUJCUr4e9h1R2TkoGd-157" value="Masukkan Nama" style="shape=parallelogram;perimeter=parallelogramPerimeter;whiteSpace=wrap;html=1;fixedSize=1;" parent="WIyWlLk6GJQsqaUBKTNV-1" vertex="1">
          <mxGeometry x="1067" y="1058" width="120" height="60" as="geometry" />
        </mxCell>
        <mxCell id="r4OUJCUr4e9h1R2TkoGd-158" value="" style="edgeStyle=orthogonalEdgeStyle;rounded=0;orthogonalLoop=1;jettySize=auto;html=1;" parent="WIyWlLk6GJQsqaUBKTNV-1" source="r4OUJCUr4e9h1R2TkoGd-159" target="r4OUJCUr4e9h1R2TkoGd-161" edge="1">
          <mxGeometry relative="1" as="geometry" />
        </mxCell>
        <mxCell id="r4OUJCUr4e9h1R2TkoGd-159" value="&amp;nbsp; &amp;nbsp;Masukkan Nomor&lt;div&gt;Kontak&lt;/div&gt;" style="shape=parallelogram;perimeter=parallelogramPerimeter;whiteSpace=wrap;html=1;fixedSize=1;" parent="WIyWlLk6GJQsqaUBKTNV-1" vertex="1">
          <mxGeometry x="1067" y="1148" width="120" height="60" as="geometry" />
        </mxCell>
        <mxCell id="r4OUJCUr4e9h1R2TkoGd-160" value="" style="edgeStyle=orthogonalEdgeStyle;rounded=0;orthogonalLoop=1;jettySize=auto;html=1;" parent="WIyWlLk6GJQsqaUBKTNV-1" source="r4OUJCUr4e9h1R2TkoGd-161" target="r4OUJCUr4e9h1R2TkoGd-163" edge="1">
          <mxGeometry relative="1" as="geometry" />
        </mxCell>
        <mxCell id="r4OUJCUr4e9h1R2TkoGd-161" value="Masukkan jenis&lt;div&gt;kendaraan&amp;nbsp;&lt;/div&gt;" style="shape=parallelogram;perimeter=parallelogramPerimeter;whiteSpace=wrap;html=1;fixedSize=1;" parent="WIyWlLk6GJQsqaUBKTNV-1" vertex="1">
          <mxGeometry x="1067" y="1238" width="120" height="60" as="geometry" />
        </mxCell>
        <mxCell id="r4OUJCUr4e9h1R2TkoGd-162" value="" style="edgeStyle=orthogonalEdgeStyle;rounded=0;orthogonalLoop=1;jettySize=auto;html=1;" parent="WIyWlLk6GJQsqaUBKTNV-1" source="r4OUJCUr4e9h1R2TkoGd-163" target="r4OUJCUr4e9h1R2TkoGd-165" edge="1">
          <mxGeometry relative="1" as="geometry" />
        </mxCell>
        <mxCell id="r4OUJCUr4e9h1R2TkoGd-163" value="&amp;nbsp; &amp;nbsp;Masukkan merek&lt;div&gt;kendaraan&lt;/div&gt;" style="shape=parallelogram;perimeter=parallelogramPerimeter;whiteSpace=wrap;html=1;fixedSize=1;" parent="WIyWlLk6GJQsqaUBKTNV-1" vertex="1">
          <mxGeometry x="1067" y="1328" width="120" height="60" as="geometry" />
        </mxCell>
        <mxCell id="r4OUJCUr4e9h1R2TkoGd-164" value="" style="edgeStyle=orthogonalEdgeStyle;rounded=0;orthogonalLoop=1;jettySize=auto;html=1;" parent="WIyWlLk6GJQsqaUBKTNV-1" source="r4OUJCUr4e9h1R2TkoGd-165" target="r4OUJCUr4e9h1R2TkoGd-167" edge="1">
          <mxGeometry relative="1" as="geometry" />
        </mxCell>
        <mxCell id="r4OUJCUr4e9h1R2TkoGd-165" value="Masukkan warna&lt;div&gt;kendaraan&lt;/div&gt;" style="shape=parallelogram;perimeter=parallelogramPerimeter;whiteSpace=wrap;html=1;fixedSize=1;" parent="WIyWlLk6GJQsqaUBKTNV-1" vertex="1">
          <mxGeometry x="1067" y="1423" width="120" height="60" as="geometry" />
        </mxCell>
        <mxCell id="r4OUJCUr4e9h1R2TkoGd-166" style="edgeStyle=orthogonalEdgeStyle;rounded=0;orthogonalLoop=1;jettySize=auto;html=1;entryX=0.5;entryY=0;entryDx=0;entryDy=0;" parent="WIyWlLk6GJQsqaUBKTNV-1" source="r4OUJCUr4e9h1R2TkoGd-167" target="r4OUJCUr4e9h1R2TkoGd-178" edge="1">
          <mxGeometry relative="1" as="geometry" />
        </mxCell>
        <mxCell id="r4OUJCUr4e9h1R2TkoGd-167" value="&amp;nbsp; &amp;nbsp;Masukkan durasi&lt;div&gt;waktu&lt;/div&gt;&lt;div&gt;penyimpanan&lt;/div&gt;" style="shape=parallelogram;perimeter=parallelogramPerimeter;whiteSpace=wrap;html=1;fixedSize=1;" parent="WIyWlLk6GJQsqaUBKTNV-1" vertex="1">
          <mxGeometry x="1067" y="1518" width="120" height="60" as="geometry" />
        </mxCell>
        <mxCell id="r4OUJCUr4e9h1R2TkoGd-168" value="" style="edgeStyle=orthogonalEdgeStyle;rounded=0;orthogonalLoop=1;jettySize=auto;html=1;" parent="WIyWlLk6GJQsqaUBKTNV-1" source="r4OUJCUr4e9h1R2TkoGd-169" target="r4OUJCUr4e9h1R2TkoGd-170" edge="1">
          <mxGeometry relative="1" as="geometry" />
        </mxCell>
        <mxCell id="r4OUJCUr4e9h1R2TkoGd-169" value="Menyimpan perubahan data ke&lt;div&gt;Csv&lt;/div&gt;" style="whiteSpace=wrap;html=1;" parent="WIyWlLk6GJQsqaUBKTNV-1" vertex="1">
          <mxGeometry x="1067" y="1700" width="120" height="60" as="geometry" />
        </mxCell>
        <mxCell id="r4OUJCUr4e9h1R2TkoGd-184" value="" style="edgeStyle=orthogonalEdgeStyle;rounded=0;orthogonalLoop=1;jettySize=auto;html=1;" parent="WIyWlLk6GJQsqaUBKTNV-1" source="r4OUJCUr4e9h1R2TkoGd-170" target="r4OUJCUr4e9h1R2TkoGd-183" edge="1">
          <mxGeometry relative="1" as="geometry" />
        </mxCell>
        <mxCell id="r4OUJCUr4e9h1R2TkoGd-170" value="Data berhasil di&lt;div&gt;ubah dan disimpan&lt;/div&gt;" style="shape=parallelogram;perimeter=parallelogramPerimeter;whiteSpace=wrap;html=1;fixedSize=1;" parent="WIyWlLk6GJQsqaUBKTNV-1" vertex="1">
          <mxGeometry x="1059" y="1800" width="136" height="60" as="geometry" />
        </mxCell>
        <mxCell id="r4OUJCUr4e9h1R2TkoGd-171" style="edgeStyle=orthogonalEdgeStyle;rounded=0;orthogonalLoop=1;jettySize=auto;html=1;" parent="WIyWlLk6GJQsqaUBKTNV-1" edge="1">
          <mxGeometry relative="1" as="geometry">
            <mxPoint x="1083" y="1157" as="targetPoint" />
            <mxPoint x="1039" y="1157" as="sourcePoint" />
          </mxGeometry>
        </mxCell>
        <mxCell id="r4OUJCUr4e9h1R2TkoGd-172" style="edgeStyle=orthogonalEdgeStyle;rounded=0;orthogonalLoop=1;jettySize=auto;html=1;" parent="WIyWlLk6GJQsqaUBKTNV-1" edge="1">
          <mxGeometry relative="1" as="geometry">
            <mxPoint x="1083" y="1249" as="targetPoint" />
            <mxPoint x="1039" y="1249" as="sourcePoint" />
          </mxGeometry>
        </mxCell>
        <mxCell id="r4OUJCUr4e9h1R2TkoGd-173" style="edgeStyle=orthogonalEdgeStyle;rounded=0;orthogonalLoop=1;jettySize=auto;html=1;" parent="WIyWlLk6GJQsqaUBKTNV-1" edge="1">
          <mxGeometry relative="1" as="geometry">
            <mxPoint x="1083" y="1339" as="targetPoint" />
            <mxPoint x="1039" y="1339" as="sourcePoint" />
          </mxGeometry>
        </mxCell>
        <mxCell id="r4OUJCUr4e9h1R2TkoGd-174" style="edgeStyle=orthogonalEdgeStyle;rounded=0;orthogonalLoop=1;jettySize=auto;html=1;" parent="WIyWlLk6GJQsqaUBKTNV-1" edge="1">
          <mxGeometry relative="1" as="geometry">
            <mxPoint x="1083" y="1433" as="targetPoint" />
            <mxPoint x="1039" y="1433" as="sourcePoint" />
          </mxGeometry>
        </mxCell>
        <mxCell id="r4OUJCUr4e9h1R2TkoGd-175" style="edgeStyle=orthogonalEdgeStyle;rounded=0;orthogonalLoop=1;jettySize=auto;html=1;" parent="WIyWlLk6GJQsqaUBKTNV-1" edge="1">
          <mxGeometry relative="1" as="geometry">
            <mxPoint x="1083" y="1528" as="targetPoint" />
            <mxPoint x="1039" y="1528" as="sourcePoint" />
          </mxGeometry>
        </mxCell>
        <mxCell id="r4OUJCUr4e9h1R2TkoGd-176" style="edgeStyle=orthogonalEdgeStyle;rounded=0;orthogonalLoop=1;jettySize=auto;html=1;" parent="WIyWlLk6GJQsqaUBKTNV-1" edge="1">
          <mxGeometry relative="1" as="geometry">
            <mxPoint x="1222" y="1849" as="targetPoint" />
            <mxPoint x="1178" y="1849" as="sourcePoint" />
          </mxGeometry>
        </mxCell>
        <mxCell id="r4OUJCUr4e9h1R2TkoGd-177" style="edgeStyle=orthogonalEdgeStyle;rounded=0;orthogonalLoop=1;jettySize=auto;html=1;entryX=0.5;entryY=0;entryDx=0;entryDy=0;" parent="WIyWlLk6GJQsqaUBKTNV-1" source="r4OUJCUr4e9h1R2TkoGd-178" target="r4OUJCUr4e9h1R2TkoGd-169" edge="1">
          <mxGeometry relative="1" as="geometry" />
        </mxCell>
        <mxCell id="r4OUJCUr4e9h1R2TkoGd-178" value="Masukkan jenis&lt;div&gt;Pembayaran&lt;/div&gt;" style="shape=parallelogram;perimeter=parallelogramPerimeter;whiteSpace=wrap;html=1;fixedSize=1;" parent="WIyWlLk6GJQsqaUBKTNV-1" vertex="1">
          <mxGeometry x="1067" y="1608" width="120" height="60" as="geometry" />
        </mxCell>
        <mxCell id="r4OUJCUr4e9h1R2TkoGd-179" style="edgeStyle=orthogonalEdgeStyle;rounded=0;orthogonalLoop=1;jettySize=auto;html=1;" parent="WIyWlLk6GJQsqaUBKTNV-1" edge="1">
          <mxGeometry relative="1" as="geometry">
            <mxPoint x="1083" y="1618" as="targetPoint" />
            <mxPoint x="1039" y="1618" as="sourcePoint" />
          </mxGeometry>
        </mxCell>
        <mxCell id="r4OUJCUr4e9h1R2TkoGd-183" value="End" style="rounded=1;whiteSpace=wrap;html=1;arcSize=50;" parent="WIyWlLk6GJQsqaUBKTNV-1" vertex="1">
          <mxGeometry x="1067" y="1898" width="120" height="60" as="geometry" />
        </mxCell>
        <mxCell id="eH-7ti7Au0aiYVJ2lGVS-8" value="" style="edgeStyle=orthogonalEdgeStyle;rounded=0;orthogonalLoop=1;jettySize=auto;html=1;" edge="1" parent="WIyWlLk6GJQsqaUBKTNV-1" source="r4OUJCUr4e9h1R2TkoGd-185" target="eH-7ti7Au0aiYVJ2lGVS-6">
          <mxGeometry relative="1" as="geometry" />
        </mxCell>
        <mxCell id="r4OUJCUr4e9h1R2TkoGd-185" value="Ubah Data" style="rounded=1;whiteSpace=wrap;html=1;arcSize=50;" parent="WIyWlLk6GJQsqaUBKTNV-1" vertex="1">
          <mxGeometry x="1067" y="880" width="120" height="60" as="geometry" />
        </mxCell>
        <mxCell id="r4OUJCUr4e9h1R2TkoGd-191" value="" style="edgeStyle=orthogonalEdgeStyle;rounded=0;orthogonalLoop=1;jettySize=auto;html=1;" parent="WIyWlLk6GJQsqaUBKTNV-1" source="r4OUJCUr4e9h1R2TkoGd-188" target="r4OUJCUr4e9h1R2TkoGd-190" edge="1">
          <mxGeometry relative="1" as="geometry" />
        </mxCell>
        <mxCell id="r4OUJCUr4e9h1R2TkoGd-196" value="" style="edgeStyle=orthogonalEdgeStyle;rounded=0;orthogonalLoop=1;jettySize=auto;html=1;" parent="WIyWlLk6GJQsqaUBKTNV-1" source="r4OUJCUr4e9h1R2TkoGd-188" target="r4OUJCUr4e9h1R2TkoGd-195" edge="1">
          <mxGeometry relative="1" as="geometry" />
        </mxCell>
        <mxCell id="r4OUJCUr4e9h1R2TkoGd-188" value="pilih==3" style="rhombus;whiteSpace=wrap;html=1;rounded=1;arcSize=0;" parent="WIyWlLk6GJQsqaUBKTNV-1" vertex="1">
          <mxGeometry x="1469" y="318" width="80" height="80" as="geometry" />
        </mxCell>
        <mxCell id="r4OUJCUr4e9h1R2TkoGd-190" value="End" style="rounded=1;whiteSpace=wrap;html=1;arcSize=50;" parent="WIyWlLk6GJQsqaUBKTNV-1" vertex="1">
          <mxGeometry x="1449" y="440" width="120" height="60" as="geometry" />
        </mxCell>
        <mxCell id="r4OUJCUr4e9h1R2TkoGd-192" value="T" style="text;html=1;align=center;verticalAlign=middle;resizable=0;points=[];autosize=1;strokeColor=none;fillColor=none;" parent="WIyWlLk6GJQsqaUBKTNV-1" vertex="1">
          <mxGeometry x="1314" y="386" width="30" height="30" as="geometry" />
        </mxCell>
        <mxCell id="r4OUJCUr4e9h1R2TkoGd-193" value="F" style="text;html=1;align=center;verticalAlign=middle;resizable=0;points=[];autosize=1;strokeColor=none;fillColor=none;" parent="WIyWlLk6GJQsqaUBKTNV-1" vertex="1">
          <mxGeometry x="1384" y="326" width="30" height="30" as="geometry" />
        </mxCell>
        <mxCell id="r4OUJCUr4e9h1R2TkoGd-197" style="edgeStyle=orthogonalEdgeStyle;rounded=0;orthogonalLoop=1;jettySize=auto;html=1;exitX=1;exitY=0.5;exitDx=0;exitDy=0;entryX=1;entryY=0.5;entryDx=0;entryDy=0;" parent="WIyWlLk6GJQsqaUBKTNV-1" source="r4OUJCUr4e9h1R2TkoGd-195" target="r4OUJCUr4e9h1R2TkoGd-80" edge="1">
          <mxGeometry relative="1" as="geometry">
            <Array as="points">
              <mxPoint x="1719" y="360" />
              <mxPoint x="1760" y="360" />
              <mxPoint x="1760" y="180" />
            </Array>
          </mxGeometry>
        </mxCell>
        <mxCell id="r4OUJCUr4e9h1R2TkoGd-200" style="edgeStyle=orthogonalEdgeStyle;rounded=0;orthogonalLoop=1;jettySize=auto;html=1;exitX=1;exitY=1;exitDx=0;exitDy=0;" parent="WIyWlLk6GJQsqaUBKTNV-1" source="r4OUJCUr4e9h1R2TkoGd-195" edge="1">
          <mxGeometry relative="1" as="geometry">
            <mxPoint x="1739" y="379.04347826086973" as="targetPoint" />
          </mxGeometry>
        </mxCell>
        <mxCell id="r4OUJCUr4e9h1R2TkoGd-195" value="Pilihan Tidak&lt;div&gt;Tersedia&lt;/div&gt;" style="shape=parallelogram;perimeter=parallelogramPerimeter;whiteSpace=wrap;html=1;fixedSize=1;rounded=1;arcSize=0;" parent="WIyWlLk6GJQsqaUBKTNV-1" vertex="1">
          <mxGeometry x="1609" y="328" width="120" height="60" as="geometry" />
        </mxCell>
        <mxCell id="r4OUJCUr4e9h1R2TkoGd-201" value="T" style="text;html=1;align=center;verticalAlign=middle;resizable=0;points=[];autosize=1;strokeColor=none;fillColor=none;" parent="WIyWlLk6GJQsqaUBKTNV-1" vertex="1">
          <mxGeometry x="1474" y="376" width="30" height="30" as="geometry" />
        </mxCell>
        <mxCell id="r4OUJCUr4e9h1R2TkoGd-202" value="F" style="text;html=1;align=center;verticalAlign=middle;resizable=0;points=[];autosize=1;strokeColor=none;fillColor=none;" parent="WIyWlLk6GJQsqaUBKTNV-1" vertex="1">
          <mxGeometry x="1544" y="326" width="30" height="30" as="geometry" />
        </mxCell>
        <mxCell id="r4OUJCUr4e9h1R2TkoGd-205" value="" style="edgeStyle=orthogonalEdgeStyle;rounded=0;orthogonalLoop=1;jettySize=auto;html=1;" parent="WIyWlLk6GJQsqaUBKTNV-1" source="r4OUJCUr4e9h1R2TkoGd-206" target="r4OUJCUr4e9h1R2TkoGd-209" edge="1">
          <mxGeometry relative="1" as="geometry" />
        </mxCell>
        <mxCell id="r4OUJCUr4e9h1R2TkoGd-206" value="&amp;nbsp; &amp;nbsp; &amp;nbsp;Masukkan nama&lt;div&gt;Data&lt;span style=&quot;background-color: initial;&quot;&gt;yang ingin&amp;nbsp;&lt;/span&gt;&lt;/div&gt;&lt;div&gt;&lt;span style=&quot;background-color: initial;&quot;&gt;di&lt;/span&gt;&lt;span style=&quot;background-color: initial;&quot;&gt;hapus&lt;/span&gt;&lt;/div&gt;" style="shape=parallelogram;perimeter=parallelogramPerimeter;whiteSpace=wrap;html=1;fixedSize=1;" parent="WIyWlLk6GJQsqaUBKTNV-1" vertex="1">
          <mxGeometry x="1342" y="980" width="120" height="60" as="geometry" />
        </mxCell>
        <mxCell id="r4OUJCUr4e9h1R2TkoGd-207" value="" style="edgeStyle=orthogonalEdgeStyle;rounded=0;orthogonalLoop=1;jettySize=auto;html=1;" parent="WIyWlLk6GJQsqaUBKTNV-1" source="r4OUJCUr4e9h1R2TkoGd-209" target="r4OUJCUr4e9h1R2TkoGd-211" edge="1">
          <mxGeometry relative="1" as="geometry" />
        </mxCell>
        <mxCell id="r4OUJCUr4e9h1R2TkoGd-208" value="" style="edgeStyle=orthogonalEdgeStyle;rounded=0;orthogonalLoop=1;jettySize=auto;html=1;" parent="WIyWlLk6GJQsqaUBKTNV-1" source="r4OUJCUr4e9h1R2TkoGd-209" target="r4OUJCUr4e9h1R2TkoGd-215" edge="1">
          <mxGeometry relative="1" as="geometry" />
        </mxCell>
        <mxCell id="r4OUJCUr4e9h1R2TkoGd-209" value="if nama&lt;div&gt;ada di csv&lt;/div&gt;" style="rhombus;whiteSpace=wrap;html=1;" parent="WIyWlLk6GJQsqaUBKTNV-1" vertex="1">
          <mxGeometry x="1362" y="1070" width="80" height="80" as="geometry" />
        </mxCell>
        <mxCell id="r4OUJCUr4e9h1R2TkoGd-210" value="" style="edgeStyle=orthogonalEdgeStyle;rounded=0;orthogonalLoop=1;jettySize=auto;html=1;" parent="WIyWlLk6GJQsqaUBKTNV-1" source="r4OUJCUr4e9h1R2TkoGd-211" target="r4OUJCUr4e9h1R2TkoGd-213" edge="1">
          <mxGeometry relative="1" as="geometry" />
        </mxCell>
        <mxCell id="r4OUJCUr4e9h1R2TkoGd-211" value="Hapus Data" style="whiteSpace=wrap;html=1;" parent="WIyWlLk6GJQsqaUBKTNV-1" vertex="1">
          <mxGeometry x="1229" y="1170" width="120" height="60" as="geometry" />
        </mxCell>
        <mxCell id="r4OUJCUr4e9h1R2TkoGd-212" style="edgeStyle=orthogonalEdgeStyle;rounded=0;orthogonalLoop=1;jettySize=auto;html=1;" parent="WIyWlLk6GJQsqaUBKTNV-1" edge="1">
          <mxGeometry relative="1" as="geometry">
            <mxPoint x="1373" y="1320" as="targetPoint" />
            <mxPoint x="1333" y="1320" as="sourcePoint" />
          </mxGeometry>
        </mxCell>
        <mxCell id="r4OUJCUr4e9h1R2TkoGd-213" value="Data berhasil&amp;nbsp;&lt;div&gt;di hapus&lt;/div&gt;" style="shape=parallelogram;perimeter=parallelogramPerimeter;whiteSpace=wrap;html=1;fixedSize=1;" parent="WIyWlLk6GJQsqaUBKTNV-1" vertex="1">
          <mxGeometry x="1229" y="1275" width="120" height="60" as="geometry" />
        </mxCell>
        <mxCell id="r4OUJCUr4e9h1R2TkoGd-214" style="edgeStyle=orthogonalEdgeStyle;rounded=0;orthogonalLoop=1;jettySize=auto;html=1;" parent="WIyWlLk6GJQsqaUBKTNV-1" edge="1">
          <mxGeometry relative="1" as="geometry">
            <mxPoint x="1604" y="1218" as="targetPoint" />
            <mxPoint x="1567" y="1218" as="sourcePoint" />
          </mxGeometry>
        </mxCell>
        <mxCell id="r4OUJCUr4e9h1R2TkoGd-215" value="Data tidak&amp;nbsp;&lt;div&gt;ditemukan&lt;/div&gt;" style="shape=parallelogram;perimeter=parallelogramPerimeter;whiteSpace=wrap;html=1;fixedSize=1;" parent="WIyWlLk6GJQsqaUBKTNV-1" vertex="1">
          <mxGeometry x="1462" y="1170" width="120" height="60" as="geometry" />
        </mxCell>
        <mxCell id="r4OUJCUr4e9h1R2TkoGd-217" style="edgeStyle=orthogonalEdgeStyle;rounded=0;orthogonalLoop=1;jettySize=auto;html=1;entryX=0.5;entryY=0;entryDx=0;entryDy=0;" parent="WIyWlLk6GJQsqaUBKTNV-1" source="r4OUJCUr4e9h1R2TkoGd-213" target="r4OUJCUr4e9h1R2TkoGd-226" edge="1">
          <mxGeometry relative="1" as="geometry">
            <Array as="points">
              <mxPoint x="1289" y="1385" />
              <mxPoint x="1412" y="1385" />
            </Array>
            <mxPoint x="1391.9999999999995" y="1385" as="targetPoint" />
          </mxGeometry>
        </mxCell>
        <mxCell id="r4OUJCUr4e9h1R2TkoGd-218" style="edgeStyle=orthogonalEdgeStyle;rounded=0;orthogonalLoop=1;jettySize=auto;html=1;entryX=0.5;entryY=0;entryDx=0;entryDy=0;" parent="WIyWlLk6GJQsqaUBKTNV-1" source="r4OUJCUr4e9h1R2TkoGd-215" target="r4OUJCUr4e9h1R2TkoGd-226" edge="1">
          <mxGeometry relative="1" as="geometry">
            <Array as="points">
              <mxPoint x="1522" y="1385" />
              <mxPoint x="1412" y="1385" />
            </Array>
            <mxPoint x="1441.9999999999995" y="1385" as="targetPoint" />
          </mxGeometry>
        </mxCell>
        <mxCell id="r4OUJCUr4e9h1R2TkoGd-219" style="edgeStyle=orthogonalEdgeStyle;rounded=0;orthogonalLoop=1;jettySize=auto;html=1;" parent="WIyWlLk6GJQsqaUBKTNV-1" edge="1">
          <mxGeometry relative="1" as="geometry">
            <mxPoint x="1358" y="990" as="targetPoint" />
            <mxPoint x="1314" y="990" as="sourcePoint" />
          </mxGeometry>
        </mxCell>
        <mxCell id="r4OUJCUr4e9h1R2TkoGd-221" value="F" style="text;strokeColor=none;align=center;fillColor=none;html=1;verticalAlign=middle;whiteSpace=wrap;rounded=0;" parent="WIyWlLk6GJQsqaUBKTNV-1" vertex="1">
          <mxGeometry x="1429" y="1078" width="60" height="30" as="geometry" />
        </mxCell>
        <mxCell id="r4OUJCUr4e9h1R2TkoGd-224" value="" style="edgeStyle=orthogonalEdgeStyle;rounded=0;orthogonalLoop=1;jettySize=auto;html=1;" parent="WIyWlLk6GJQsqaUBKTNV-1" source="r4OUJCUr4e9h1R2TkoGd-223" target="r4OUJCUr4e9h1R2TkoGd-206" edge="1">
          <mxGeometry relative="1" as="geometry" />
        </mxCell>
        <mxCell id="r4OUJCUr4e9h1R2TkoGd-223" value="Hapus Data" style="rounded=1;whiteSpace=wrap;html=1;arcSize=50;" parent="WIyWlLk6GJQsqaUBKTNV-1" vertex="1">
          <mxGeometry x="1342" y="880" width="120" height="60" as="geometry" />
        </mxCell>
        <mxCell id="r4OUJCUr4e9h1R2TkoGd-225" value="T" style="text;html=1;align=center;verticalAlign=middle;resizable=0;points=[];autosize=1;strokeColor=none;fillColor=none;" parent="WIyWlLk6GJQsqaUBKTNV-1" vertex="1">
          <mxGeometry x="1334" y="1078" width="30" height="30" as="geometry" />
        </mxCell>
        <mxCell id="r4OUJCUr4e9h1R2TkoGd-226" value="End" style="rounded=1;whiteSpace=wrap;html=1;arcSize=50;" parent="WIyWlLk6GJQsqaUBKTNV-1" vertex="1">
          <mxGeometry x="1349" y="1410" width="120" height="60" as="geometry" />
        </mxCell>
        <mxCell id="r4OUJCUr4e9h1R2TkoGd-229" value="" style="edgeStyle=orthogonalEdgeStyle;rounded=0;orthogonalLoop=1;jettySize=auto;html=1;" parent="WIyWlLk6GJQsqaUBKTNV-1" source="r4OUJCUr4e9h1R2TkoGd-230" target="r4OUJCUr4e9h1R2TkoGd-233" edge="1">
          <mxGeometry relative="1" as="geometry" />
        </mxCell>
        <mxCell id="r4OUJCUr4e9h1R2TkoGd-230" value="Masukkan nama&lt;div&gt;yang di cari&lt;/div&gt;" style="shape=parallelogram;perimeter=parallelogramPerimeter;whiteSpace=wrap;html=1;fixedSize=1;" parent="WIyWlLk6GJQsqaUBKTNV-1" vertex="1">
          <mxGeometry x="1739" y="970" width="120" height="60" as="geometry" />
        </mxCell>
        <mxCell id="r4OUJCUr4e9h1R2TkoGd-231" style="edgeStyle=orthogonalEdgeStyle;rounded=0;orthogonalLoop=1;jettySize=auto;html=1;" parent="WIyWlLk6GJQsqaUBKTNV-1" edge="1">
          <mxGeometry relative="1" as="geometry">
            <mxPoint x="1755" y="981" as="targetPoint" />
            <mxPoint x="1711" y="981" as="sourcePoint" />
          </mxGeometry>
        </mxCell>
        <mxCell id="r4OUJCUr4e9h1R2TkoGd-232" value="" style="edgeStyle=orthogonalEdgeStyle;rounded=0;orthogonalLoop=1;jettySize=auto;html=1;" parent="WIyWlLk6GJQsqaUBKTNV-1" source="r4OUJCUr4e9h1R2TkoGd-233" target="r4OUJCUr4e9h1R2TkoGd-236" edge="1">
          <mxGeometry relative="1" as="geometry" />
        </mxCell>
        <mxCell id="r4OUJCUr4e9h1R2TkoGd-233" value="Cari nama" style="whiteSpace=wrap;html=1;" parent="WIyWlLk6GJQsqaUBKTNV-1" vertex="1">
          <mxGeometry x="1740" y="1070" width="120" height="60" as="geometry" />
        </mxCell>
        <mxCell id="r4OUJCUr4e9h1R2TkoGd-234" value="" style="edgeStyle=orthogonalEdgeStyle;rounded=0;orthogonalLoop=1;jettySize=auto;html=1;" parent="WIyWlLk6GJQsqaUBKTNV-1" source="r4OUJCUr4e9h1R2TkoGd-236" target="r4OUJCUr4e9h1R2TkoGd-238" edge="1">
          <mxGeometry relative="1" as="geometry" />
        </mxCell>
        <mxCell id="r4OUJCUr4e9h1R2TkoGd-235" value="" style="edgeStyle=orthogonalEdgeStyle;rounded=0;orthogonalLoop=1;jettySize=auto;html=1;" parent="WIyWlLk6GJQsqaUBKTNV-1" source="r4OUJCUr4e9h1R2TkoGd-236" target="r4OUJCUr4e9h1R2TkoGd-241" edge="1">
          <mxGeometry relative="1" as="geometry" />
        </mxCell>
        <mxCell id="r4OUJCUr4e9h1R2TkoGd-236" value="nama tidak&lt;div&gt;ada di csv&lt;/div&gt;" style="rhombus;whiteSpace=wrap;html=1;" parent="WIyWlLk6GJQsqaUBKTNV-1" vertex="1">
          <mxGeometry x="1760" y="1170" width="80" height="80" as="geometry" />
        </mxCell>
        <mxCell id="r4OUJCUr4e9h1R2TkoGd-237" style="edgeStyle=orthogonalEdgeStyle;rounded=0;orthogonalLoop=1;jettySize=auto;html=1;" parent="WIyWlLk6GJQsqaUBKTNV-1" edge="1">
          <mxGeometry relative="1" as="geometry">
            <mxPoint x="1773" y="1343" as="targetPoint" />
            <mxPoint x="1733" y="1343" as="sourcePoint" />
          </mxGeometry>
        </mxCell>
        <mxCell id="r4OUJCUr4e9h1R2TkoGd-238" value="Data nama tidak&lt;div&gt;ditemukan&lt;/div&gt;" style="shape=parallelogram;perimeter=parallelogramPerimeter;whiteSpace=wrap;html=1;fixedSize=1;" parent="WIyWlLk6GJQsqaUBKTNV-1" vertex="1">
          <mxGeometry x="1629" y="1300" width="120" height="60" as="geometry" />
        </mxCell>
        <mxCell id="r4OUJCUr4e9h1R2TkoGd-239" value="T" style="text;strokeColor=none;align=center;fillColor=none;html=1;verticalAlign=middle;whiteSpace=wrap;rounded=0;" parent="WIyWlLk6GJQsqaUBKTNV-1" vertex="1">
          <mxGeometry x="1729" y="1180" width="60" height="30" as="geometry" />
        </mxCell>
        <mxCell id="r4OUJCUr4e9h1R2TkoGd-240" style="edgeStyle=orthogonalEdgeStyle;rounded=0;orthogonalLoop=1;jettySize=auto;html=1;" parent="WIyWlLk6GJQsqaUBKTNV-1" edge="1">
          <mxGeometry relative="1" as="geometry">
            <mxPoint x="2024" y="1343" as="targetPoint" />
            <mxPoint x="1984" y="1343" as="sourcePoint" />
          </mxGeometry>
        </mxCell>
        <mxCell id="r4OUJCUr4e9h1R2TkoGd-241" value="&amp;nbsp; menampilkan data&lt;div&gt;nama&lt;/div&gt;" style="shape=parallelogram;perimeter=parallelogramPerimeter;whiteSpace=wrap;html=1;fixedSize=1;" parent="WIyWlLk6GJQsqaUBKTNV-1" vertex="1">
          <mxGeometry x="1869" y="1298" width="130" height="60" as="geometry" />
        </mxCell>
        <mxCell id="r4OUJCUr4e9h1R2TkoGd-243" style="edgeStyle=orthogonalEdgeStyle;rounded=0;orthogonalLoop=1;jettySize=auto;html=1;entryX=0.5;entryY=0;entryDx=0;entryDy=0;" parent="WIyWlLk6GJQsqaUBKTNV-1" source="r4OUJCUr4e9h1R2TkoGd-238" target="r4OUJCUr4e9h1R2TkoGd-247" edge="1">
          <mxGeometry relative="1" as="geometry">
            <Array as="points">
              <mxPoint x="1689" y="1420" />
              <mxPoint x="1800" y="1420" />
            </Array>
            <mxPoint x="1789" y="1420" as="targetPoint" />
          </mxGeometry>
        </mxCell>
        <mxCell id="r4OUJCUr4e9h1R2TkoGd-244" style="edgeStyle=orthogonalEdgeStyle;rounded=0;orthogonalLoop=1;jettySize=auto;html=1;entryX=0.5;entryY=0;entryDx=0;entryDy=0;" parent="WIyWlLk6GJQsqaUBKTNV-1" source="r4OUJCUr4e9h1R2TkoGd-241" target="r4OUJCUr4e9h1R2TkoGd-247" edge="1">
          <mxGeometry relative="1" as="geometry">
            <Array as="points">
              <mxPoint x="1929" y="1420" />
              <mxPoint x="1800" y="1420" />
            </Array>
            <mxPoint x="1839" y="1420" as="targetPoint" />
          </mxGeometry>
        </mxCell>
        <mxCell id="r4OUJCUr4e9h1R2TkoGd-245" value="F" style="text;strokeColor=none;align=center;fillColor=none;html=1;verticalAlign=middle;whiteSpace=wrap;rounded=0;" parent="WIyWlLk6GJQsqaUBKTNV-1" vertex="1">
          <mxGeometry x="1819" y="1180" width="60" height="30" as="geometry" />
        </mxCell>
        <mxCell id="r4OUJCUr4e9h1R2TkoGd-247" value="End" style="rounded=1;whiteSpace=wrap;html=1;arcSize=50;" parent="WIyWlLk6GJQsqaUBKTNV-1" vertex="1">
          <mxGeometry x="1740" y="1460" width="120" height="60" as="geometry" />
        </mxCell>
        <mxCell id="r4OUJCUr4e9h1R2TkoGd-249" value="" style="edgeStyle=orthogonalEdgeStyle;rounded=0;orthogonalLoop=1;jettySize=auto;html=1;" parent="WIyWlLk6GJQsqaUBKTNV-1" source="r4OUJCUr4e9h1R2TkoGd-248" target="r4OUJCUr4e9h1R2TkoGd-230" edge="1">
          <mxGeometry relative="1" as="geometry" />
        </mxCell>
        <mxCell id="r4OUJCUr4e9h1R2TkoGd-248" value="Cari Data" style="rounded=1;whiteSpace=wrap;html=1;arcSize=50;" parent="WIyWlLk6GJQsqaUBKTNV-1" vertex="1">
          <mxGeometry x="1739" y="880" width="120" height="60" as="geometry" />
        </mxCell>
        <mxCell id="r4OUJCUr4e9h1R2TkoGd-252" value="" style="edgeStyle=orthogonalEdgeStyle;rounded=0;orthogonalLoop=1;jettySize=auto;html=1;" parent="WIyWlLk6GJQsqaUBKTNV-1" source="r4OUJCUr4e9h1R2TkoGd-253" target="r4OUJCUr4e9h1R2TkoGd-256" edge="1">
          <mxGeometry relative="1" as="geometry" />
        </mxCell>
        <mxCell id="r4OUJCUr4e9h1R2TkoGd-253" value="&amp;nbsp; masukkan nama&lt;div&gt;data yang ingin&amp;nbsp;&lt;/div&gt;&lt;div&gt;diubah&lt;/div&gt;" style="shape=parallelogram;perimeter=parallelogramPerimeter;whiteSpace=wrap;html=1;fixedSize=1;" parent="WIyWlLk6GJQsqaUBKTNV-1" vertex="1">
          <mxGeometry x="2174" y="964" width="120" height="60" as="geometry" />
        </mxCell>
        <mxCell id="r4OUJCUr4e9h1R2TkoGd-254" style="edgeStyle=orthogonalEdgeStyle;rounded=0;orthogonalLoop=1;jettySize=auto;html=1;" parent="WIyWlLk6GJQsqaUBKTNV-1" edge="1">
          <mxGeometry relative="1" as="geometry">
            <mxPoint x="2188" y="980" as="targetPoint" />
            <mxPoint x="2144" y="980" as="sourcePoint" />
          </mxGeometry>
        </mxCell>
        <mxCell id="r4OUJCUr4e9h1R2TkoGd-255" value="" style="edgeStyle=orthogonalEdgeStyle;rounded=0;orthogonalLoop=1;jettySize=auto;html=1;" parent="WIyWlLk6GJQsqaUBKTNV-1" source="r4OUJCUr4e9h1R2TkoGd-256" target="r4OUJCUr4e9h1R2TkoGd-259" edge="1">
          <mxGeometry relative="1" as="geometry" />
        </mxCell>
        <mxCell id="r4OUJCUr4e9h1R2TkoGd-256" value="Cari nama" style="whiteSpace=wrap;html=1;" parent="WIyWlLk6GJQsqaUBKTNV-1" vertex="1">
          <mxGeometry x="2174" y="1064" width="120" height="60" as="geometry" />
        </mxCell>
        <mxCell id="r4OUJCUr4e9h1R2TkoGd-257" value="" style="edgeStyle=orthogonalEdgeStyle;rounded=0;orthogonalLoop=1;jettySize=auto;html=1;" parent="WIyWlLk6GJQsqaUBKTNV-1" source="r4OUJCUr4e9h1R2TkoGd-259" target="r4OUJCUr4e9h1R2TkoGd-261" edge="1">
          <mxGeometry relative="1" as="geometry" />
        </mxCell>
        <mxCell id="r4OUJCUr4e9h1R2TkoGd-258" value="" style="edgeStyle=orthogonalEdgeStyle;rounded=0;orthogonalLoop=1;jettySize=auto;html=1;" parent="WIyWlLk6GJQsqaUBKTNV-1" source="r4OUJCUr4e9h1R2TkoGd-259" target="r4OUJCUr4e9h1R2TkoGd-263" edge="1">
          <mxGeometry relative="1" as="geometry" />
        </mxCell>
        <mxCell id="r4OUJCUr4e9h1R2TkoGd-259" value="nama tidak&amp;nbsp;&lt;div&gt;Ada&lt;/div&gt;" style="rhombus;whiteSpace=wrap;html=1;" parent="WIyWlLk6GJQsqaUBKTNV-1" vertex="1">
          <mxGeometry x="2194" y="1170" width="80" height="80" as="geometry" />
        </mxCell>
        <mxCell id="r4OUJCUr4e9h1R2TkoGd-260" style="edgeStyle=orthogonalEdgeStyle;rounded=0;orthogonalLoop=1;jettySize=auto;html=1;" parent="WIyWlLk6GJQsqaUBKTNV-1" edge="1">
          <mxGeometry relative="1" as="geometry">
            <mxPoint x="2209" y="1344" as="targetPoint" />
            <mxPoint x="2172.982456140351" y="1344.0526315789475" as="sourcePoint" />
          </mxGeometry>
        </mxCell>
        <mxCell id="r4OUJCUr4e9h1R2TkoGd-287" style="edgeStyle=orthogonalEdgeStyle;rounded=0;orthogonalLoop=1;jettySize=auto;html=1;exitX=0.5;exitY=1;exitDx=0;exitDy=0;entryX=0;entryY=0.5;entryDx=0;entryDy=0;" parent="WIyWlLk6GJQsqaUBKTNV-1" source="r4OUJCUr4e9h1R2TkoGd-261" target="r4OUJCUr4e9h1R2TkoGd-285" edge="1">
          <mxGeometry relative="1" as="geometry" />
        </mxCell>
        <mxCell id="r4OUJCUr4e9h1R2TkoGd-261" value="Data tidak&lt;div&gt;&amp;nbsp;ditemukan&lt;/div&gt;" style="shape=parallelogram;perimeter=parallelogramPerimeter;whiteSpace=wrap;html=1;fixedSize=1;" parent="WIyWlLk6GJQsqaUBKTNV-1" vertex="1">
          <mxGeometry x="2069" y="1298" width="120" height="60" as="geometry" />
        </mxCell>
        <mxCell id="r4OUJCUr4e9h1R2TkoGd-262" value="" style="edgeStyle=orthogonalEdgeStyle;rounded=0;orthogonalLoop=1;jettySize=auto;html=1;" parent="WIyWlLk6GJQsqaUBKTNV-1" source="r4OUJCUr4e9h1R2TkoGd-263" target="r4OUJCUr4e9h1R2TkoGd-267" edge="1">
          <mxGeometry relative="1" as="geometry" />
        </mxCell>
        <mxCell id="r4OUJCUr4e9h1R2TkoGd-263" value="&amp;nbsp; &amp;nbsp;Masukkan kolom&lt;div&gt;apa yang mau&lt;/div&gt;&lt;div&gt;diubah&lt;/div&gt;" style="shape=parallelogram;perimeter=parallelogramPerimeter;whiteSpace=wrap;html=1;fixedSize=1;" parent="WIyWlLk6GJQsqaUBKTNV-1" vertex="1">
          <mxGeometry x="2285" y="1259" width="120" height="60" as="geometry" />
        </mxCell>
        <mxCell id="r4OUJCUr4e9h1R2TkoGd-264" style="edgeStyle=orthogonalEdgeStyle;rounded=0;orthogonalLoop=1;jettySize=auto;html=1;" parent="WIyWlLk6GJQsqaUBKTNV-1" edge="1">
          <mxGeometry relative="1" as="geometry">
            <mxPoint x="2299" y="1275" as="targetPoint" />
            <mxPoint x="2262.982456140351" y="1275.0526315789475" as="sourcePoint" />
          </mxGeometry>
        </mxCell>
        <mxCell id="r4OUJCUr4e9h1R2TkoGd-265" style="edgeStyle=orthogonalEdgeStyle;rounded=0;orthogonalLoop=1;jettySize=auto;html=1;" parent="WIyWlLk6GJQsqaUBKTNV-1" source="r4OUJCUr4e9h1R2TkoGd-267" target="r4OUJCUr4e9h1R2TkoGd-269" edge="1">
          <mxGeometry relative="1" as="geometry" />
        </mxCell>
        <mxCell id="r4OUJCUr4e9h1R2TkoGd-266" value="" style="edgeStyle=orthogonalEdgeStyle;rounded=0;orthogonalLoop=1;jettySize=auto;html=1;" parent="WIyWlLk6GJQsqaUBKTNV-1" source="r4OUJCUr4e9h1R2TkoGd-267" target="r4OUJCUr4e9h1R2TkoGd-276" edge="1">
          <mxGeometry relative="1" as="geometry" />
        </mxCell>
        <mxCell id="r4OUJCUr4e9h1R2TkoGd-267" value="&lt;div&gt;&lt;span style=&quot;background-color: initial;&quot;&gt;if kolom ==&lt;/span&gt;&lt;/div&gt;&lt;div&gt;kolom csv&lt;/div&gt;" style="rhombus;whiteSpace=wrap;html=1;" parent="WIyWlLk6GJQsqaUBKTNV-1" vertex="1">
          <mxGeometry x="2299" y="1350" width="90" height="80" as="geometry" />
        </mxCell>
        <mxCell id="r4OUJCUr4e9h1R2TkoGd-268" value="" style="edgeStyle=orthogonalEdgeStyle;rounded=0;orthogonalLoop=1;jettySize=auto;html=1;" parent="WIyWlLk6GJQsqaUBKTNV-1" source="r4OUJCUr4e9h1R2TkoGd-269" target="r4OUJCUr4e9h1R2TkoGd-272" edge="1">
          <mxGeometry relative="1" as="geometry" />
        </mxCell>
        <mxCell id="r4OUJCUr4e9h1R2TkoGd-269" value="Masukkan isi&lt;div&gt;baru&lt;/div&gt;" style="shape=parallelogram;perimeter=parallelogramPerimeter;whiteSpace=wrap;html=1;fixedSize=1;" parent="WIyWlLk6GJQsqaUBKTNV-1" vertex="1">
          <mxGeometry x="2165" y="1440" width="120" height="60" as="geometry" />
        </mxCell>
        <mxCell id="r4OUJCUr4e9h1R2TkoGd-270" style="edgeStyle=orthogonalEdgeStyle;rounded=0;orthogonalLoop=1;jettySize=auto;html=1;" parent="WIyWlLk6GJQsqaUBKTNV-1" edge="1">
          <mxGeometry relative="1" as="geometry">
            <mxPoint x="2182" y="1450" as="targetPoint" />
            <mxPoint x="2145.982456140351" y="1450.0526315789475" as="sourcePoint" />
            <Array as="points">
              <mxPoint x="2173" y="1450" />
              <mxPoint x="2173" y="1450" />
            </Array>
          </mxGeometry>
        </mxCell>
        <mxCell id="r4OUJCUr4e9h1R2TkoGd-271" value="" style="edgeStyle=orthogonalEdgeStyle;rounded=0;orthogonalLoop=1;jettySize=auto;html=1;" parent="WIyWlLk6GJQsqaUBKTNV-1" source="r4OUJCUr4e9h1R2TkoGd-272" target="r4OUJCUr4e9h1R2TkoGd-274" edge="1">
          <mxGeometry relative="1" as="geometry" />
        </mxCell>
        <mxCell id="r4OUJCUr4e9h1R2TkoGd-272" value="ubah isi lama = isi baru" style="whiteSpace=wrap;html=1;" parent="WIyWlLk6GJQsqaUBKTNV-1" vertex="1">
          <mxGeometry x="2165" y="1530" width="120" height="60" as="geometry" />
        </mxCell>
        <mxCell id="r4OUJCUr4e9h1R2TkoGd-273" style="edgeStyle=orthogonalEdgeStyle;rounded=0;orthogonalLoop=1;jettySize=auto;html=1;" parent="WIyWlLk6GJQsqaUBKTNV-1" edge="1">
          <mxGeometry relative="1" as="geometry">
            <mxPoint x="2310" y="1668" as="targetPoint" />
            <mxPoint x="2269.980392156862" y="1668.0588235294122" as="sourcePoint" />
          </mxGeometry>
        </mxCell>
        <mxCell id="r4OUJCUr4e9h1R2TkoGd-286" value="" style="edgeStyle=orthogonalEdgeStyle;rounded=0;orthogonalLoop=1;jettySize=auto;html=1;" parent="WIyWlLk6GJQsqaUBKTNV-1" source="r4OUJCUr4e9h1R2TkoGd-274" target="r4OUJCUr4e9h1R2TkoGd-285" edge="1">
          <mxGeometry relative="1" as="geometry" />
        </mxCell>
        <mxCell id="r4OUJCUr4e9h1R2TkoGd-274" value="Kolom berhasil&lt;div&gt;diubah&lt;/div&gt;" style="shape=parallelogram;perimeter=parallelogramPerimeter;whiteSpace=wrap;html=1;fixedSize=1;" parent="WIyWlLk6GJQsqaUBKTNV-1" vertex="1">
          <mxGeometry x="2165" y="1620" width="120" height="60" as="geometry" />
        </mxCell>
        <mxCell id="r4OUJCUr4e9h1R2TkoGd-275" style="edgeStyle=orthogonalEdgeStyle;rounded=0;orthogonalLoop=1;jettySize=auto;html=1;" parent="WIyWlLk6GJQsqaUBKTNV-1" edge="1">
          <mxGeometry relative="1" as="geometry">
            <mxPoint x="2560" y="1490" as="targetPoint" />
            <mxPoint x="2520" y="1490" as="sourcePoint" />
          </mxGeometry>
        </mxCell>
        <mxCell id="r4OUJCUr4e9h1R2TkoGd-288" style="edgeStyle=orthogonalEdgeStyle;rounded=0;orthogonalLoop=1;jettySize=auto;html=1;exitX=0.5;exitY=1;exitDx=0;exitDy=0;entryX=1;entryY=0.5;entryDx=0;entryDy=0;" parent="WIyWlLk6GJQsqaUBKTNV-1" source="r4OUJCUr4e9h1R2TkoGd-276" target="r4OUJCUr4e9h1R2TkoGd-285" edge="1">
          <mxGeometry relative="1" as="geometry" />
        </mxCell>
        <mxCell id="r4OUJCUr4e9h1R2TkoGd-276" value="Kolom tidak&amp;nbsp;&lt;div&gt;tersedia&lt;/div&gt;" style="shape=parallelogram;perimeter=parallelogramPerimeter;whiteSpace=wrap;html=1;fixedSize=1;" parent="WIyWlLk6GJQsqaUBKTNV-1" vertex="1">
          <mxGeometry x="2415" y="1445" width="120" height="60" as="geometry" />
        </mxCell>
        <mxCell id="r4OUJCUr4e9h1R2TkoGd-280" value="T" style="text;strokeColor=none;align=center;fillColor=none;html=1;verticalAlign=middle;whiteSpace=wrap;rounded=0;" parent="WIyWlLk6GJQsqaUBKTNV-1" vertex="1">
          <mxGeometry x="2149" y="1185" width="60" height="30" as="geometry" />
        </mxCell>
        <mxCell id="r4OUJCUr4e9h1R2TkoGd-281" value="F" style="text;strokeColor=none;align=center;fillColor=none;html=1;verticalAlign=middle;whiteSpace=wrap;rounded=0;" parent="WIyWlLk6GJQsqaUBKTNV-1" vertex="1">
          <mxGeometry x="2259" y="1185" width="60" height="30" as="geometry" />
        </mxCell>
        <mxCell id="r4OUJCUr4e9h1R2TkoGd-284" value="" style="edgeStyle=orthogonalEdgeStyle;rounded=0;orthogonalLoop=1;jettySize=auto;html=1;" parent="WIyWlLk6GJQsqaUBKTNV-1" source="r4OUJCUr4e9h1R2TkoGd-283" target="r4OUJCUr4e9h1R2TkoGd-253" edge="1">
          <mxGeometry relative="1" as="geometry" />
        </mxCell>
        <mxCell id="r4OUJCUr4e9h1R2TkoGd-283" value="Ubah salah satu&lt;br&gt;data" style="rounded=1;whiteSpace=wrap;html=1;arcSize=50;" parent="WIyWlLk6GJQsqaUBKTNV-1" vertex="1">
          <mxGeometry x="2174" y="880" width="120" height="60" as="geometry" />
        </mxCell>
        <mxCell id="r4OUJCUr4e9h1R2TkoGd-285" value="End" style="rounded=1;whiteSpace=wrap;html=1;arcSize=50;" parent="WIyWlLk6GJQsqaUBKTNV-1" vertex="1">
          <mxGeometry x="2165" y="1740" width="120" height="60" as="geometry" />
        </mxCell>
        <mxCell id="r4OUJCUr4e9h1R2TkoGd-289" value="T" style="text;html=1;align=center;verticalAlign=middle;resizable=0;points=[];autosize=1;strokeColor=none;fillColor=none;" parent="WIyWlLk6GJQsqaUBKTNV-1" vertex="1">
          <mxGeometry x="2274" y="1358" width="30" height="30" as="geometry" />
        </mxCell>
        <mxCell id="r4OUJCUr4e9h1R2TkoGd-290" value="F" style="text;html=1;align=center;verticalAlign=middle;resizable=0;points=[];autosize=1;strokeColor=none;fillColor=none;" parent="WIyWlLk6GJQsqaUBKTNV-1" vertex="1">
          <mxGeometry x="2385" y="1360" width="30" height="30" as="geometry" />
        </mxCell>
        <mxCell id="r4OUJCUr4e9h1R2TkoGd-293" value="T" style="text;html=1;align=center;verticalAlign=middle;resizable=0;points=[];autosize=1;strokeColor=none;fillColor=none;" parent="WIyWlLk6GJQsqaUBKTNV-1" vertex="1">
          <mxGeometry x="75" y="658" width="30" height="30" as="geometry" />
        </mxCell>
        <mxCell id="r4OUJCUr4e9h1R2TkoGd-294" value="T" style="text;html=1;align=center;verticalAlign=middle;resizable=0;points=[];autosize=1;strokeColor=none;fillColor=none;" parent="WIyWlLk6GJQsqaUBKTNV-1" vertex="1">
          <mxGeometry x="235" y="648" width="30" height="30" as="geometry" />
        </mxCell>
        <mxCell id="r4OUJCUr4e9h1R2TkoGd-305" value="" style="edgeStyle=orthogonalEdgeStyle;rounded=0;orthogonalLoop=1;jettySize=auto;html=1;" parent="WIyWlLk6GJQsqaUBKTNV-1" source="r4OUJCUr4e9h1R2TkoGd-303" target="r4OUJCUr4e9h1R2TkoGd-304" edge="1">
          <mxGeometry relative="1" as="geometry" />
        </mxCell>
        <mxCell id="r4OUJCUr4e9h1R2TkoGd-303" value="Menu Admin" style="rounded=1;whiteSpace=wrap;html=1;arcSize=50;" parent="WIyWlLk6GJQsqaUBKTNV-1" vertex="1">
          <mxGeometry x="1840" y="10" width="120" height="60" as="geometry" />
        </mxCell>
        <mxCell id="r4OUJCUr4e9h1R2TkoGd-306" style="edgeStyle=orthogonalEdgeStyle;rounded=0;orthogonalLoop=1;jettySize=auto;html=1;exitX=1;exitY=1;exitDx=0;exitDy=0;" parent="WIyWlLk6GJQsqaUBKTNV-1" source="r4OUJCUr4e9h1R2TkoGd-304" edge="1">
          <mxGeometry relative="1" as="geometry">
            <mxPoint x="2020" y="220" as="targetPoint" />
          </mxGeometry>
        </mxCell>
        <mxCell id="r4OUJCUr4e9h1R2TkoGd-318" value="" style="edgeStyle=orthogonalEdgeStyle;rounded=0;orthogonalLoop=1;jettySize=auto;html=1;" parent="WIyWlLk6GJQsqaUBKTNV-1" source="r4OUJCUr4e9h1R2TkoGd-304" target="r4OUJCUr4e9h1R2TkoGd-317" edge="1">
          <mxGeometry relative="1" as="geometry" />
        </mxCell>
        <mxCell id="r4OUJCUr4e9h1R2TkoGd-304" value="program&lt;div&gt;1. read&lt;/div&gt;&lt;div&gt;2. tambah&lt;/div&gt;&lt;div&gt;3.ubah&amp;nbsp;&lt;/div&gt;&lt;div&gt;4. hapus&lt;/div&gt;&lt;div&gt;5. cari&lt;/div&gt;&lt;div&gt;6. ubah&lt;/div&gt;&lt;div&gt;7. keluar&lt;/div&gt;" style="shape=parallelogram;perimeter=parallelogramPerimeter;whiteSpace=wrap;html=1;fixedSize=1;rounded=1;arcSize=0;" parent="WIyWlLk6GJQsqaUBKTNV-1" vertex="1">
          <mxGeometry x="1800" y="120" width="200" height="110" as="geometry" />
        </mxCell>
        <mxCell id="r4OUJCUr4e9h1R2TkoGd-313" value="" style="edgeStyle=orthogonalEdgeStyle;rounded=0;orthogonalLoop=1;jettySize=auto;html=1;entryX=0.5;entryY=0;entryDx=0;entryDy=0;" parent="WIyWlLk6GJQsqaUBKTNV-1" source="r4OUJCUr4e9h1R2TkoGd-310" target="r4OUJCUr4e9h1R2TkoGd-5" edge="1">
          <mxGeometry relative="1" as="geometry" />
        </mxCell>
        <mxCell id="r4OUJCUr4e9h1R2TkoGd-310" value="pilih" style="shape=parallelogram;perimeter=parallelogramPerimeter;whiteSpace=wrap;html=1;fixedSize=1;" parent="WIyWlLk6GJQsqaUBKTNV-1" vertex="1">
          <mxGeometry x="60" y="210" width="80" height="30" as="geometry" />
        </mxCell>
        <mxCell id="r4OUJCUr4e9h1R2TkoGd-315" style="edgeStyle=orthogonalEdgeStyle;rounded=0;orthogonalLoop=1;jettySize=auto;html=1;exitX=1;exitY=1;exitDx=0;exitDy=0;" parent="WIyWlLk6GJQsqaUBKTNV-1" edge="1">
          <mxGeometry relative="1" as="geometry">
            <mxPoint x="75" y="220.040459770115" as="targetPoint" />
            <mxPoint x="49" y="219.96" as="sourcePoint" />
          </mxGeometry>
        </mxCell>
        <mxCell id="r4OUJCUr4e9h1R2TkoGd-322" value="" style="edgeStyle=orthogonalEdgeStyle;rounded=0;orthogonalLoop=1;jettySize=auto;html=1;" parent="WIyWlLk6GJQsqaUBKTNV-1" source="r4OUJCUr4e9h1R2TkoGd-317" target="r4OUJCUr4e9h1R2TkoGd-321" edge="1">
          <mxGeometry relative="1" as="geometry" />
        </mxCell>
        <mxCell id="r4OUJCUr4e9h1R2TkoGd-317" value="Pilih" style="shape=parallelogram;perimeter=parallelogramPerimeter;whiteSpace=wrap;html=1;fixedSize=1;rounded=1;arcSize=0;" parent="WIyWlLk6GJQsqaUBKTNV-1" vertex="1">
          <mxGeometry x="1860" y="270" width="80" height="40" as="geometry" />
        </mxCell>
        <mxCell id="r4OUJCUr4e9h1R2TkoGd-320" style="edgeStyle=orthogonalEdgeStyle;rounded=0;orthogonalLoop=1;jettySize=auto;html=1;exitX=1;exitY=1;exitDx=0;exitDy=0;" parent="WIyWlLk6GJQsqaUBKTNV-1" edge="1">
          <mxGeometry relative="1" as="geometry">
            <mxPoint x="1875" y="279.33444444444444" as="targetPoint" />
            <mxPoint x="1848" y="278.89" as="sourcePoint" />
          </mxGeometry>
        </mxCell>
        <mxCell id="r4OUJCUr4e9h1R2TkoGd-324" value="" style="edgeStyle=orthogonalEdgeStyle;rounded=0;orthogonalLoop=1;jettySize=auto;html=1;" parent="WIyWlLk6GJQsqaUBKTNV-1" source="r4OUJCUr4e9h1R2TkoGd-321" target="r4OUJCUr4e9h1R2TkoGd-323" edge="1">
          <mxGeometry relative="1" as="geometry" />
        </mxCell>
        <mxCell id="r4OUJCUr4e9h1R2TkoGd-340" value="" style="edgeStyle=orthogonalEdgeStyle;rounded=0;orthogonalLoop=1;jettySize=auto;html=1;" parent="WIyWlLk6GJQsqaUBKTNV-1" source="r4OUJCUr4e9h1R2TkoGd-321" target="r4OUJCUr4e9h1R2TkoGd-339" edge="1">
          <mxGeometry relative="1" as="geometry" />
        </mxCell>
        <mxCell id="r4OUJCUr4e9h1R2TkoGd-321" value="Pilih ==1" style="rhombus;whiteSpace=wrap;html=1;rounded=1;arcSize=0;" parent="WIyWlLk6GJQsqaUBKTNV-1" vertex="1">
          <mxGeometry x="1860" y="370" width="80" height="80" as="geometry" />
        </mxCell>
        <mxCell id="r4OUJCUr4e9h1R2TkoGd-326" value="" style="edgeStyle=orthogonalEdgeStyle;rounded=0;orthogonalLoop=1;jettySize=auto;html=1;" parent="WIyWlLk6GJQsqaUBKTNV-1" source="r4OUJCUr4e9h1R2TkoGd-323" target="r4OUJCUr4e9h1R2TkoGd-325" edge="1">
          <mxGeometry relative="1" as="geometry" />
        </mxCell>
        <mxCell id="r4OUJCUr4e9h1R2TkoGd-342" value="" style="edgeStyle=orthogonalEdgeStyle;rounded=0;orthogonalLoop=1;jettySize=auto;html=1;" parent="WIyWlLk6GJQsqaUBKTNV-1" source="r4OUJCUr4e9h1R2TkoGd-323" target="r4OUJCUr4e9h1R2TkoGd-341" edge="1">
          <mxGeometry relative="1" as="geometry" />
        </mxCell>
        <mxCell id="r4OUJCUr4e9h1R2TkoGd-323" value="Pilih==2" style="rhombus;whiteSpace=wrap;html=1;rounded=1;arcSize=0;" parent="WIyWlLk6GJQsqaUBKTNV-1" vertex="1">
          <mxGeometry x="2020" y="370" width="80" height="80" as="geometry" />
        </mxCell>
        <mxCell id="r4OUJCUr4e9h1R2TkoGd-328" value="" style="edgeStyle=orthogonalEdgeStyle;rounded=0;orthogonalLoop=1;jettySize=auto;html=1;" parent="WIyWlLk6GJQsqaUBKTNV-1" source="r4OUJCUr4e9h1R2TkoGd-325" target="r4OUJCUr4e9h1R2TkoGd-327" edge="1">
          <mxGeometry relative="1" as="geometry" />
        </mxCell>
        <mxCell id="r4OUJCUr4e9h1R2TkoGd-344" value="" style="edgeStyle=orthogonalEdgeStyle;rounded=0;orthogonalLoop=1;jettySize=auto;html=1;" parent="WIyWlLk6GJQsqaUBKTNV-1" source="r4OUJCUr4e9h1R2TkoGd-325" target="r4OUJCUr4e9h1R2TkoGd-343" edge="1">
          <mxGeometry relative="1" as="geometry" />
        </mxCell>
        <mxCell id="r4OUJCUr4e9h1R2TkoGd-325" value="Pilih==3" style="rhombus;whiteSpace=wrap;html=1;rounded=1;arcSize=0;" parent="WIyWlLk6GJQsqaUBKTNV-1" vertex="1">
          <mxGeometry x="2180" y="370" width="80" height="80" as="geometry" />
        </mxCell>
        <mxCell id="r4OUJCUr4e9h1R2TkoGd-330" value="" style="edgeStyle=orthogonalEdgeStyle;rounded=0;orthogonalLoop=1;jettySize=auto;html=1;" parent="WIyWlLk6GJQsqaUBKTNV-1" source="r4OUJCUr4e9h1R2TkoGd-327" target="r4OUJCUr4e9h1R2TkoGd-329" edge="1">
          <mxGeometry relative="1" as="geometry" />
        </mxCell>
        <mxCell id="r4OUJCUr4e9h1R2TkoGd-348" value="" style="edgeStyle=orthogonalEdgeStyle;rounded=0;orthogonalLoop=1;jettySize=auto;html=1;" parent="WIyWlLk6GJQsqaUBKTNV-1" source="r4OUJCUr4e9h1R2TkoGd-327" target="r4OUJCUr4e9h1R2TkoGd-347" edge="1">
          <mxGeometry relative="1" as="geometry" />
        </mxCell>
        <mxCell id="r4OUJCUr4e9h1R2TkoGd-327" value="Pilih==4" style="rhombus;whiteSpace=wrap;html=1;rounded=1;arcSize=0;" parent="WIyWlLk6GJQsqaUBKTNV-1" vertex="1">
          <mxGeometry x="2340" y="370" width="80" height="80" as="geometry" />
        </mxCell>
        <mxCell id="r4OUJCUr4e9h1R2TkoGd-332" value="" style="edgeStyle=orthogonalEdgeStyle;rounded=0;orthogonalLoop=1;jettySize=auto;html=1;" parent="WIyWlLk6GJQsqaUBKTNV-1" source="r4OUJCUr4e9h1R2TkoGd-329" target="r4OUJCUr4e9h1R2TkoGd-331" edge="1">
          <mxGeometry relative="1" as="geometry" />
        </mxCell>
        <mxCell id="r4OUJCUr4e9h1R2TkoGd-350" value="" style="edgeStyle=orthogonalEdgeStyle;rounded=0;orthogonalLoop=1;jettySize=auto;html=1;" parent="WIyWlLk6GJQsqaUBKTNV-1" source="r4OUJCUr4e9h1R2TkoGd-329" target="r4OUJCUr4e9h1R2TkoGd-349" edge="1">
          <mxGeometry relative="1" as="geometry" />
        </mxCell>
        <mxCell id="r4OUJCUr4e9h1R2TkoGd-329" value="Pilih==5" style="rhombus;whiteSpace=wrap;html=1;rounded=1;arcSize=0;" parent="WIyWlLk6GJQsqaUBKTNV-1" vertex="1">
          <mxGeometry x="2500" y="370" width="80" height="80" as="geometry" />
        </mxCell>
        <mxCell id="r4OUJCUr4e9h1R2TkoGd-334" value="" style="edgeStyle=orthogonalEdgeStyle;rounded=0;orthogonalLoop=1;jettySize=auto;html=1;" parent="WIyWlLk6GJQsqaUBKTNV-1" source="r4OUJCUr4e9h1R2TkoGd-331" target="r4OUJCUr4e9h1R2TkoGd-333" edge="1">
          <mxGeometry relative="1" as="geometry" />
        </mxCell>
        <mxCell id="r4OUJCUr4e9h1R2TkoGd-352" value="" style="edgeStyle=orthogonalEdgeStyle;rounded=0;orthogonalLoop=1;jettySize=auto;html=1;" parent="WIyWlLk6GJQsqaUBKTNV-1" source="r4OUJCUr4e9h1R2TkoGd-331" target="r4OUJCUr4e9h1R2TkoGd-351" edge="1">
          <mxGeometry relative="1" as="geometry" />
        </mxCell>
        <mxCell id="r4OUJCUr4e9h1R2TkoGd-331" value="Pilih==6" style="rhombus;whiteSpace=wrap;html=1;rounded=1;arcSize=0;" parent="WIyWlLk6GJQsqaUBKTNV-1" vertex="1">
          <mxGeometry x="2660" y="370" width="80" height="80" as="geometry" />
        </mxCell>
        <mxCell id="r4OUJCUr4e9h1R2TkoGd-356" value="" style="edgeStyle=orthogonalEdgeStyle;rounded=0;orthogonalLoop=1;jettySize=auto;html=1;" parent="WIyWlLk6GJQsqaUBKTNV-1" source="r4OUJCUr4e9h1R2TkoGd-333" target="r4OUJCUr4e9h1R2TkoGd-355" edge="1">
          <mxGeometry relative="1" as="geometry" />
        </mxCell>
        <mxCell id="r4OUJCUr4e9h1R2TkoGd-358" value="" style="edgeStyle=orthogonalEdgeStyle;rounded=0;orthogonalLoop=1;jettySize=auto;html=1;" parent="WIyWlLk6GJQsqaUBKTNV-1" source="r4OUJCUr4e9h1R2TkoGd-333" target="r4OUJCUr4e9h1R2TkoGd-357" edge="1">
          <mxGeometry relative="1" as="geometry" />
        </mxCell>
        <mxCell id="r4OUJCUr4e9h1R2TkoGd-333" value="Pilih==7" style="rhombus;whiteSpace=wrap;html=1;rounded=1;arcSize=0;" parent="WIyWlLk6GJQsqaUBKTNV-1" vertex="1">
          <mxGeometry x="2820" y="370" width="80" height="80" as="geometry" />
        </mxCell>
        <mxCell id="r4OUJCUr4e9h1R2TkoGd-371" style="edgeStyle=orthogonalEdgeStyle;rounded=0;orthogonalLoop=1;jettySize=auto;html=1;exitX=0.5;exitY=1;exitDx=0;exitDy=0;" parent="WIyWlLk6GJQsqaUBKTNV-1" source="r4OUJCUr4e9h1R2TkoGd-339" edge="1">
          <mxGeometry relative="1" as="geometry">
            <mxPoint x="2059.9999999999995" y="700.0000000000002" as="targetPoint" />
            <Array as="points">
              <mxPoint x="1900" y="700" />
            </Array>
          </mxGeometry>
        </mxCell>
        <mxCell id="r4OUJCUr4e9h1R2TkoGd-339" value="Read Data" style="shape=process;whiteSpace=wrap;html=1;backgroundOutline=1;rounded=1;arcSize=0;" parent="WIyWlLk6GJQsqaUBKTNV-1" vertex="1">
          <mxGeometry x="1840" y="540" width="120" height="60" as="geometry" />
        </mxCell>
        <mxCell id="r4OUJCUr4e9h1R2TkoGd-370" style="edgeStyle=orthogonalEdgeStyle;rounded=0;orthogonalLoop=1;jettySize=auto;html=1;exitX=0.5;exitY=1;exitDx=0;exitDy=0;" parent="WIyWlLk6GJQsqaUBKTNV-1" source="r4OUJCUr4e9h1R2TkoGd-341" edge="1">
          <mxGeometry relative="1" as="geometry">
            <mxPoint x="2219.9999999999995" y="700.0000000000002" as="targetPoint" />
            <Array as="points">
              <mxPoint x="2060" y="700" />
            </Array>
          </mxGeometry>
        </mxCell>
        <mxCell id="r4OUJCUr4e9h1R2TkoGd-341" value="Tambah Data" style="shape=process;whiteSpace=wrap;html=1;backgroundOutline=1;rounded=1;arcSize=0;" parent="WIyWlLk6GJQsqaUBKTNV-1" vertex="1">
          <mxGeometry x="2000" y="540" width="120" height="60" as="geometry" />
        </mxCell>
        <mxCell id="r4OUJCUr4e9h1R2TkoGd-369" style="edgeStyle=orthogonalEdgeStyle;rounded=0;orthogonalLoop=1;jettySize=auto;html=1;exitX=0.5;exitY=1;exitDx=0;exitDy=0;" parent="WIyWlLk6GJQsqaUBKTNV-1" source="r4OUJCUr4e9h1R2TkoGd-343" edge="1">
          <mxGeometry relative="1" as="geometry">
            <mxPoint x="2379.9999999999995" y="700.0000000000002" as="targetPoint" />
            <Array as="points">
              <mxPoint x="2220" y="700" />
            </Array>
          </mxGeometry>
        </mxCell>
        <mxCell id="r4OUJCUr4e9h1R2TkoGd-343" value="Ubah&amp;nbsp; Data" style="shape=process;whiteSpace=wrap;html=1;backgroundOutline=1;rounded=1;arcSize=0;" parent="WIyWlLk6GJQsqaUBKTNV-1" vertex="1">
          <mxGeometry x="2160" y="540" width="120" height="60" as="geometry" />
        </mxCell>
        <mxCell id="r4OUJCUr4e9h1R2TkoGd-368" style="edgeStyle=orthogonalEdgeStyle;rounded=0;orthogonalLoop=1;jettySize=auto;html=1;exitX=0.5;exitY=1;exitDx=0;exitDy=0;" parent="WIyWlLk6GJQsqaUBKTNV-1" source="r4OUJCUr4e9h1R2TkoGd-347" edge="1">
          <mxGeometry relative="1" as="geometry">
            <mxPoint x="2539.9999999999995" y="700.0000000000002" as="targetPoint" />
            <Array as="points">
              <mxPoint x="2380" y="700" />
            </Array>
          </mxGeometry>
        </mxCell>
        <mxCell id="r4OUJCUr4e9h1R2TkoGd-347" value="Hapus Data" style="shape=process;whiteSpace=wrap;html=1;backgroundOutline=1;rounded=1;arcSize=0;" parent="WIyWlLk6GJQsqaUBKTNV-1" vertex="1">
          <mxGeometry x="2320" y="540" width="120" height="60" as="geometry" />
        </mxCell>
        <mxCell id="r4OUJCUr4e9h1R2TkoGd-367" style="edgeStyle=orthogonalEdgeStyle;rounded=0;orthogonalLoop=1;jettySize=auto;html=1;exitX=0.5;exitY=1;exitDx=0;exitDy=0;" parent="WIyWlLk6GJQsqaUBKTNV-1" source="r4OUJCUr4e9h1R2TkoGd-349" edge="1">
          <mxGeometry relative="1" as="geometry">
            <mxPoint x="3100" y="410" as="targetPoint" />
            <Array as="points">
              <mxPoint x="2540" y="700" />
              <mxPoint x="3100" y="700" />
            </Array>
          </mxGeometry>
        </mxCell>
        <mxCell id="r4OUJCUr4e9h1R2TkoGd-349" value="Cari Data" style="shape=process;whiteSpace=wrap;html=1;backgroundOutline=1;rounded=1;arcSize=0;" parent="WIyWlLk6GJQsqaUBKTNV-1" vertex="1">
          <mxGeometry x="2480" y="540" width="120" height="60" as="geometry" />
        </mxCell>
        <mxCell id="r4OUJCUr4e9h1R2TkoGd-360" style="edgeStyle=orthogonalEdgeStyle;rounded=0;orthogonalLoop=1;jettySize=auto;html=1;exitX=0.5;exitY=1;exitDx=0;exitDy=0;entryX=0;entryY=0.5;entryDx=0;entryDy=0;" parent="WIyWlLk6GJQsqaUBKTNV-1" source="r4OUJCUr4e9h1R2TkoGd-351" target="r4OUJCUr4e9h1R2TkoGd-355" edge="1">
          <mxGeometry relative="1" as="geometry" />
        </mxCell>
        <mxCell id="r4OUJCUr4e9h1R2TkoGd-351" value="Ubah salah satu&lt;div&gt;data&lt;/div&gt;" style="shape=process;whiteSpace=wrap;html=1;backgroundOutline=1;rounded=1;arcSize=0;" parent="WIyWlLk6GJQsqaUBKTNV-1" vertex="1">
          <mxGeometry x="2640" y="540" width="120" height="60" as="geometry" />
        </mxCell>
        <mxCell id="r4OUJCUr4e9h1R2TkoGd-355" value="End" style="rounded=1;whiteSpace=wrap;html=1;arcSize=50;" parent="WIyWlLk6GJQsqaUBKTNV-1" vertex="1">
          <mxGeometry x="2800" y="618" width="120" height="60" as="geometry" />
        </mxCell>
        <mxCell id="r4OUJCUr4e9h1R2TkoGd-359" style="edgeStyle=orthogonalEdgeStyle;rounded=0;orthogonalLoop=1;jettySize=auto;html=1;exitX=1;exitY=0.5;exitDx=0;exitDy=0;entryX=1;entryY=0.5;entryDx=0;entryDy=0;" parent="WIyWlLk6GJQsqaUBKTNV-1" source="r4OUJCUr4e9h1R2TkoGd-357" target="r4OUJCUr4e9h1R2TkoGd-304" edge="1">
          <mxGeometry relative="1" as="geometry">
            <Array as="points">
              <mxPoint x="3100" y="410" />
              <mxPoint x="3100" y="175" />
            </Array>
          </mxGeometry>
        </mxCell>
        <mxCell id="76NYa4YrOvzDiuikEAig-0" style="edgeStyle=orthogonalEdgeStyle;rounded=0;orthogonalLoop=1;jettySize=auto;html=1;exitX=1;exitY=1;exitDx=0;exitDy=0;" parent="WIyWlLk6GJQsqaUBKTNV-1" source="r4OUJCUr4e9h1R2TkoGd-357" edge="1">
          <mxGeometry relative="1" as="geometry">
            <mxPoint x="3090" y="431.625" as="targetPoint" />
          </mxGeometry>
        </mxCell>
        <mxCell id="r4OUJCUr4e9h1R2TkoGd-357" value="Pilihan Tidak&amp;nbsp;&lt;div&gt;Tersedia&lt;/div&gt;" style="shape=parallelogram;perimeter=parallelogramPerimeter;whiteSpace=wrap;html=1;fixedSize=1;rounded=1;arcSize=0;" parent="WIyWlLk6GJQsqaUBKTNV-1" vertex="1">
          <mxGeometry x="2960" y="380" width="120" height="60" as="geometry" />
        </mxCell>
        <mxCell id="r4OUJCUr4e9h1R2TkoGd-377" style="edgeStyle=orthogonalEdgeStyle;rounded=0;orthogonalLoop=1;jettySize=auto;html=1;exitX=0.5;exitY=1;exitDx=0;exitDy=0;entryX=0.5;entryY=0;entryDx=0;entryDy=0;" parent="WIyWlLk6GJQsqaUBKTNV-1" source="r4OUJCUr4e9h1R2TkoGd-375" target="r4OUJCUr4e9h1R2TkoGd-105" edge="1">
          <mxGeometry relative="1" as="geometry" />
        </mxCell>
        <mxCell id="r4OUJCUr4e9h1R2TkoGd-375" value="Pilih" style="shape=parallelogram;perimeter=parallelogramPerimeter;whiteSpace=wrap;html=1;fixedSize=1;rounded=1;arcSize=0;" parent="WIyWlLk6GJQsqaUBKTNV-1" vertex="1">
          <mxGeometry x="1148" y="240" width="80" height="40" as="geometry" />
        </mxCell>
        <mxCell id="r4OUJCUr4e9h1R2TkoGd-378" style="edgeStyle=orthogonalEdgeStyle;rounded=0;orthogonalLoop=1;jettySize=auto;html=1;" parent="WIyWlLk6GJQsqaUBKTNV-1" edge="1">
          <mxGeometry relative="1" as="geometry">
            <mxPoint x="1164" y="249.50307692307666" as="targetPoint" />
            <mxPoint x="1140" y="250" as="sourcePoint" />
          </mxGeometry>
        </mxCell>
        <mxCell id="r4OUJCUr4e9h1R2TkoGd-382" value="T" style="text;html=1;align=center;verticalAlign=middle;resizable=0;points=[];autosize=1;strokeColor=none;fillColor=none;" parent="WIyWlLk6GJQsqaUBKTNV-1" vertex="1">
          <mxGeometry x="1875" y="438" width="30" height="30" as="geometry" />
        </mxCell>
        <mxCell id="r4OUJCUr4e9h1R2TkoGd-383" value="F" style="text;html=1;align=center;verticalAlign=middle;resizable=0;points=[];autosize=1;strokeColor=none;fillColor=none;" parent="WIyWlLk6GJQsqaUBKTNV-1" vertex="1">
          <mxGeometry x="1925" y="378" width="30" height="30" as="geometry" />
        </mxCell>
        <mxCell id="r4OUJCUr4e9h1R2TkoGd-384" value="T" style="text;html=1;align=center;verticalAlign=middle;resizable=0;points=[];autosize=1;strokeColor=none;fillColor=none;" parent="WIyWlLk6GJQsqaUBKTNV-1" vertex="1">
          <mxGeometry x="2035" y="438" width="30" height="30" as="geometry" />
        </mxCell>
        <mxCell id="r4OUJCUr4e9h1R2TkoGd-385" value="F" style="text;html=1;align=center;verticalAlign=middle;resizable=0;points=[];autosize=1;strokeColor=none;fillColor=none;" parent="WIyWlLk6GJQsqaUBKTNV-1" vertex="1">
          <mxGeometry x="2095" y="378" width="30" height="30" as="geometry" />
        </mxCell>
        <mxCell id="r4OUJCUr4e9h1R2TkoGd-386" value="T" style="text;html=1;align=center;verticalAlign=middle;resizable=0;points=[];autosize=1;strokeColor=none;fillColor=none;" parent="WIyWlLk6GJQsqaUBKTNV-1" vertex="1">
          <mxGeometry x="2195" y="438" width="30" height="30" as="geometry" />
        </mxCell>
        <mxCell id="r4OUJCUr4e9h1R2TkoGd-387" value="F" style="text;html=1;align=center;verticalAlign=middle;resizable=0;points=[];autosize=1;strokeColor=none;fillColor=none;" parent="WIyWlLk6GJQsqaUBKTNV-1" vertex="1">
          <mxGeometry x="2245" y="378" width="30" height="30" as="geometry" />
        </mxCell>
        <mxCell id="r4OUJCUr4e9h1R2TkoGd-388" value="T" style="text;html=1;align=center;verticalAlign=middle;resizable=0;points=[];autosize=1;strokeColor=none;fillColor=none;" parent="WIyWlLk6GJQsqaUBKTNV-1" vertex="1">
          <mxGeometry x="2355" y="438" width="30" height="30" as="geometry" />
        </mxCell>
        <mxCell id="r4OUJCUr4e9h1R2TkoGd-389" value="F" style="text;html=1;align=center;verticalAlign=middle;resizable=0;points=[];autosize=1;strokeColor=none;fillColor=none;" parent="WIyWlLk6GJQsqaUBKTNV-1" vertex="1">
          <mxGeometry x="2405" y="378" width="30" height="30" as="geometry" />
        </mxCell>
        <mxCell id="r4OUJCUr4e9h1R2TkoGd-390" value="T" style="text;html=1;align=center;verticalAlign=middle;resizable=0;points=[];autosize=1;strokeColor=none;fillColor=none;" parent="WIyWlLk6GJQsqaUBKTNV-1" vertex="1">
          <mxGeometry x="2515" y="438" width="30" height="30" as="geometry" />
        </mxCell>
        <mxCell id="r4OUJCUr4e9h1R2TkoGd-391" value="F" style="text;html=1;align=center;verticalAlign=middle;resizable=0;points=[];autosize=1;strokeColor=none;fillColor=none;" parent="WIyWlLk6GJQsqaUBKTNV-1" vertex="1">
          <mxGeometry x="2565" y="378" width="30" height="30" as="geometry" />
        </mxCell>
        <mxCell id="r4OUJCUr4e9h1R2TkoGd-392" value="T" style="text;html=1;align=center;verticalAlign=middle;resizable=0;points=[];autosize=1;strokeColor=none;fillColor=none;" parent="WIyWlLk6GJQsqaUBKTNV-1" vertex="1">
          <mxGeometry x="2675" y="438" width="30" height="30" as="geometry" />
        </mxCell>
        <mxCell id="r4OUJCUr4e9h1R2TkoGd-393" value="F" style="text;html=1;align=center;verticalAlign=middle;resizable=0;points=[];autosize=1;strokeColor=none;fillColor=none;" parent="WIyWlLk6GJQsqaUBKTNV-1" vertex="1">
          <mxGeometry x="2725" y="378" width="30" height="30" as="geometry" />
        </mxCell>
        <mxCell id="r4OUJCUr4e9h1R2TkoGd-394" value="T" style="text;html=1;align=center;verticalAlign=middle;resizable=0;points=[];autosize=1;strokeColor=none;fillColor=none;" parent="WIyWlLk6GJQsqaUBKTNV-1" vertex="1">
          <mxGeometry x="2835" y="438" width="30" height="30" as="geometry" />
        </mxCell>
        <mxCell id="r4OUJCUr4e9h1R2TkoGd-395" value="F" style="text;html=1;align=center;verticalAlign=middle;resizable=0;points=[];autosize=1;strokeColor=none;fillColor=none;" parent="WIyWlLk6GJQsqaUBKTNV-1" vertex="1">
          <mxGeometry x="2885" y="378" width="30" height="30" as="geometry" />
        </mxCell>
        <mxCell id="eH-7ti7Au0aiYVJ2lGVS-3" value="" style="edgeStyle=orthogonalEdgeStyle;rounded=0;orthogonalLoop=1;jettySize=auto;html=1;" edge="1" parent="WIyWlLk6GJQsqaUBKTNV-1" source="eH-7ti7Au0aiYVJ2lGVS-1" target="r4OUJCUr4e9h1R2TkoGd-65">
          <mxGeometry relative="1" as="geometry" />
        </mxCell>
        <mxCell id="eH-7ti7Au0aiYVJ2lGVS-1" value="Menambahkan&amp;nbsp;&lt;div&gt;username dan pw&lt;/div&gt;&lt;div&gt;baru ke database&lt;/div&gt;" style="rounded=1;whiteSpace=wrap;html=1;arcSize=0;" vertex="1" parent="WIyWlLk6GJQsqaUBKTNV-1">
          <mxGeometry x="40" y="1360" width="120" height="60" as="geometry" />
        </mxCell>
        <mxCell id="eH-7ti7Au0aiYVJ2lGVS-10" value="" style="edgeStyle=orthogonalEdgeStyle;rounded=0;orthogonalLoop=1;jettySize=auto;html=1;entryX=0.5;entryY=0;entryDx=0;entryDy=0;" edge="1" parent="WIyWlLk6GJQsqaUBKTNV-1" source="eH-7ti7Au0aiYVJ2lGVS-6" target="r4OUJCUr4e9h1R2TkoGd-157">
          <mxGeometry relative="1" as="geometry" />
        </mxCell>
        <mxCell id="eH-7ti7Au0aiYVJ2lGVS-6" value="Pilih data yang diubah" style="shape=parallelogram;perimeter=parallelogramPerimeter;whiteSpace=wrap;html=1;fixedSize=1;" vertex="1" parent="WIyWlLk6GJQsqaUBKTNV-1">
          <mxGeometry x="1067" y="970" width="120" height="60" as="geometry" />
        </mxCell>
        <mxCell id="eH-7ti7Au0aiYVJ2lGVS-7" style="edgeStyle=orthogonalEdgeStyle;rounded=0;orthogonalLoop=1;jettySize=auto;html=1;" edge="1" parent="WIyWlLk6GJQsqaUBKTNV-1">
          <mxGeometry relative="1" as="geometry">
            <mxPoint x="1084" y="980" as="targetPoint" />
            <mxPoint x="1040" y="980" as="sourcePoint" />
          </mxGeometry>
        </mxCell>
      </root>
    </mxGraphModel>
  </diagram>
</mxfile>
